<svg width="69" height="80" viewBox="0 0 69 80" fill="none" xmlns="http://www.w3.org/2000/svg">
<path d="M62.5359 73.5207C62.5606 73.7622 62.9409 73.7645 62.9161 73.5214C62.8086 72.4686 63.454 71.479 64.4684 71.1582C65.2647 70.9065 66.0678 71.2048 66.3042 72.0494C66.4084 72.4217 66.4122 72.7758 66.31 73.1162C66.3068 73.1162 66.3039 73.1154 66.3007 73.1154C65.9523 73.1098 65.6194 73.203 65.3024 73.3409C65.0594 73.4465 64.7206 73.6137 64.6701 73.9056C64.6123 74.2402 64.9986 74.4614 65.2794 74.5032C65.6263 74.5547 65.9438 74.3591 66.171 74.1125C66.3387 73.9305 66.4665 73.7323 66.5622 73.5237C66.6137 73.5323 66.6653 73.5398 66.7162 73.5529C67.4111 73.7323 68.0068 74.3153 68.1039 75.0421C68.1898 75.6854 67.6894 76.0711 67.1025 76.1877C66.9499 75.975 66.7601 75.7909 66.5404 75.6656C66.1015 75.4149 65.6352 75.5264 65.4572 76.0195C65.4365 76.0772 65.4575 76.1652 65.5058 76.2045C65.8954 76.5224 66.4095 76.6391 66.9088 76.5947C67.0625 76.8718 67.1439 77.1918 67.098 77.5031C67.0197 78.0327 66.5536 78.5382 66.0303 78.6518C64.9753 78.8807 63.9432 77.7547 63.6352 76.8576C63.5561 76.6272 63.1888 76.7261 63.2685 76.9579C63.5236 77.7011 64.0715 78.371 64.7566 78.7597C65.3316 79.086 66.0426 79.1848 66.6222 78.8124C67.2114 78.4339 67.5757 77.7536 67.4663 77.0535C67.4383 76.8748 67.3797 76.6958 67.3 76.5249C67.4202 76.4925 67.5383 76.4541 67.6499 76.4027C68.4248 76.0458 68.6619 75.2574 68.3403 74.488C68.0542 73.8037 67.4119 73.3063 66.6911 73.1618C66.7703 72.8491 66.7812 72.5177 66.722 72.1766C66.6276 71.6331 66.3332 71.1118 65.8249 70.8613C65.3618 70.6332 64.8155 70.6422 64.3325 70.8036C63.1872 71.1857 62.4121 72.3097 62.5359 73.5207ZM66.6348 76.2228C66.359 76.2111 66.094 76.1405 65.8854 76.0109C66.0742 75.7678 66.4483 76.032 66.6348 76.2228ZM66.1417 73.5051C66.1274 73.5301 66.1153 73.5553 66.0998 73.58C65.9596 73.804 65.7413 74.0841 65.4608 74.1275C65.3275 74.1481 65.2055 74.1005 65.0972 74.0251C65.0174 73.9698 65.0374 73.9628 65.1011 73.8962C65.2699 73.72 65.5711 73.6284 65.7988 73.5631C65.9115 73.5307 66.0263 73.5142 66.1417 73.5051Z" fill="black"/>
<path d="M62.244 74.4719H62.2436L55.553 74.4599C55.4399 74.4594 55.3483 74.3678 55.3486 74.2547C55.3491 74.1419 55.4407 74.0503 55.5533 74.0503H55.5538L62.2443 74.0623C62.3575 74.0628 62.449 74.1544 62.4487 74.2675C62.4483 74.3803 62.3567 74.4719 62.244 74.4719Z" fill="black"/>
<path d="M62.1305 76.2733H62.1301L57.9393 76.2656C57.8261 76.2652 57.7344 76.1736 57.7349 76.0605C57.7353 75.9476 57.8269 75.8561 57.9396 75.8561H57.94L62.1308 75.8637C62.244 75.8642 62.3355 75.9558 62.3352 76.0689C62.3349 76.1817 62.2432 76.2733 62.1305 76.2733Z" fill="black"/>
<path d="M18.6892 49.5068C11.6474 57.0558 8.29928 67.0929 9.4775 77.3848C9.72408 79.5393 13.104 79.3581 12.8557 77.1895C11.7735 67.7351 14.7428 58.697 21.2162 51.7574C22.7043 50.1617 20.1752 47.9135 18.6892 49.5068Z" fill="black"/>
<path d="M12.9644 74.9515C12.9644 74.9515 15.1212 73.2077 10.8146 73.0662C6.19719 72.9144 9.10117 74.8607 9.10117 74.8607L8.40596 75.2485C8.40596 75.2485 3.44931 71.2979 1.56463 75.1774C-0.320211 79.057 5.04162 79.7622 8.33048 79.8436C11.6195 79.9248 15.1454 80.6974 12.9644 74.9515Z" fill="#FF558B"/>
<path d="M10.6488 80C10.2154 80 9.75893 79.9794 9.29561 79.9586C8.97464 79.9441 8.65056 79.9295 8.32866 79.9216C5.72829 79.8572 2.41568 79.4306 1.40029 77.7631C0.965409 77.0488 0.99713 76.1672 1.49436 75.1432C1.94127 74.2234 2.59773 73.6598 3.4453 73.4676C4.59601 73.2071 5.89846 73.6897 6.78869 74.1409C7.61469 74.5597 8.24881 75.0293 8.41319 75.1551L8.95542 74.8526C8.68493 74.6521 7.99035 74.0805 8.14442 73.6026C8.29506 73.1349 9.16888 72.9349 10.8173 72.988C12.4541 73.0419 13.3739 73.3371 13.5513 73.8661C13.7122 74.3458 13.212 74.8374 13.057 74.9752C13.8188 77.0005 13.9175 78.3607 13.3589 79.1324C12.8414 79.8473 11.83 80 10.6488 80ZM4.13519 73.55C3.91268 73.55 3.69328 73.5717 3.47983 73.62C2.68086 73.8011 2.06018 74.3366 1.63515 75.2113C1.16246 76.1844 1.12823 77.0155 1.53389 77.6817C1.97612 78.4078 3.44733 79.6444 8.33272 79.7651C8.65556 79.7733 8.98074 79.788 9.30264 79.8023C10.9851 79.878 12.5743 79.9497 13.2323 79.0404C13.7624 78.3083 13.651 76.9796 12.8914 74.9791L12.8714 74.9262L12.9153 74.8907C12.9217 74.8855 13.5544 74.366 13.403 73.9155C13.2966 73.599 12.7609 73.2082 10.812 73.1441C8.88479 73.0805 8.37866 73.3845 8.29287 73.6503C8.16802 74.0377 8.86542 74.6083 9.14466 74.7955L9.2506 74.8665L8.39851 75.342L8.35741 75.3093C8.33287 75.2899 6.12332 73.55 4.13519 73.55Z" fill="black"/>
<path d="M11.5164 75.3115C11.3781 75.3115 11.232 75.3051 11.0781 75.2902L11.0931 75.1346C12.2094 75.2427 12.9216 74.8855 12.9286 74.8819L12.9997 75.0212C12.9734 75.0346 12.42 75.3115 11.5164 75.3115Z" fill="black"/>
<path d="M9.84186 75.1701C9.76514 75.1701 9.50279 75.1511 9.06592 74.9304L9.13639 74.7908C9.60482 75.0277 9.8492 75.014 9.85201 75.0136L9.86514 75.1693C9.86342 75.1694 9.85561 75.1701 9.84186 75.1701Z" fill="black"/>
<path d="M8.41133 75.2428C8.57383 75.3199 8.71836 75.4163 8.85617 75.5196C8.99523 75.6217 9.12383 75.7349 9.24992 75.8507C9.37273 75.9701 9.49352 76.0917 9.60352 76.2245C9.71477 76.3562 9.81961 76.4945 9.90648 76.652L9.8957 76.6634L9.14273 75.9645L8.40039 75.2542L8.41133 75.2428Z" fill="black"/>
<path d="M8.41391 75.2479C8.47906 75.3857 8.51797 75.5252 8.5475 75.6656C8.57859 75.8057 8.59438 75.947 8.60672 76.0884C8.61422 76.2302 8.61859 76.3723 8.6075 76.5154C8.59812 76.6584 8.57938 76.8021 8.53469 76.9476L8.51906 76.9487L8.45094 76.0995L8.39844 75.2492L8.41391 75.2479Z" fill="black"/>
<path d="M3.98163 74.1739C3.8324 74.2519 3.68552 74.3277 3.55207 74.4252C3.48175 74.4669 3.41753 74.5182 3.35049 74.5635C3.28627 74.6133 3.22501 74.6665 3.16282 74.7171C2.92124 74.9288 2.70809 75.1699 2.56558 75.4512C2.40948 75.7228 2.30056 76.0255 2.25884 76.3449L2.23462 76.4638L2.22618 76.585L2.20962 76.8298C2.19962 76.9943 2.21618 77.1592 2.20665 77.3301L2.19133 77.3331C2.17055 77.167 2.14008 77.0015 2.12742 76.8346L2.12398 76.583L2.12305 76.4572L2.13805 76.3322L2.1693 76.0822L2.23368 75.8384C2.2504 75.7554 2.28869 75.6798 2.31994 75.6018C2.35197 75.524 2.3826 75.4454 2.42917 75.3748C2.59199 75.0802 2.82092 74.8237 3.08828 74.6205C3.35658 74.4188 3.65645 74.2585 3.97741 74.1586L3.98163 74.1739Z" fill="white"/>
<path d="M47.9151 68.3089C45.3096 69.2243 42.7291 70.2142 40.1064 71.0807C37.6257 71.9003 34.7108 72.7177 32.0857 72.1452C25.6049 70.7316 31.0895 62.9699 33.051 59.8293C34.2079 57.977 31.2814 56.2764 30.129 58.1214C27.3444 62.5799 22.2749 70.6224 28.7011 74.4324C34.7483 78.0177 42.9882 73.6189 48.8146 71.5718C50.8557 70.8547 49.9772 67.5843 47.9151 68.3089Z" fill="black"/>
<path d="M44.4786 69.0869C44.4786 69.0869 42.0479 67.7514 43.5479 71.7906C45.1562 76.1214 45.8576 72.6968 45.8576 72.6968L46.4799 73.1932C46.4799 73.1932 44.7008 79.2768 49.0051 79.5518C53.3095 79.8269 51.9314 74.5974 50.7611 71.5228C49.5909 68.4481 48.9705 64.8922 44.4786 69.0869Z" fill="#FF558B"/>
<path d="M49.3201 79.6404C49.2163 79.6404 49.1097 79.637 49.0002 79.63C47.9799 79.5648 47.2096 79.1709 46.7108 78.4589C46.0335 77.4925 45.9871 76.1042 46.0676 75.1096C46.1423 74.1866 46.337 73.4218 46.3909 73.2221L45.9054 72.8349C45.8223 73.1612 45.5565 74.0205 45.056 74.0589C44.5644 74.0969 44.0489 73.3634 43.4749 71.8178C42.9049 70.2825 42.8297 69.3193 43.2519 68.9549C43.6351 68.6239 44.2793 68.901 44.4656 68.9922C46.0512 67.5204 47.2724 66.9143 48.1989 67.1385C49.3715 67.4231 49.9209 68.9596 50.5025 70.5863C50.6105 70.8886 50.7199 71.1941 50.8344 71.4949C51.7596 73.9259 52.6194 77.1535 51.4607 78.7247C51.0119 79.3331 50.2928 79.6404 49.3201 79.6404ZM45.8068 72.5563L46.5698 73.1649L46.555 73.2152C46.5453 73.2487 45.5901 76.5877 46.8388 78.3694C47.3091 79.0402 48.0396 79.4118 49.0103 79.4739C50.0884 79.5418 50.8721 79.2596 51.3349 78.6319C51.8395 77.9477 52.4266 76.1177 50.6881 71.5506C50.5734 71.2487 50.4637 70.9422 50.3553 70.6389C49.7882 69.053 49.2525 67.5551 48.1618 67.2902C47.2833 67.0771 46.0959 67.6837 44.532 69.1438L44.4908 69.1824L44.4412 69.1552C44.4339 69.1513 43.7137 68.7627 43.354 69.0732C43.1013 69.2915 42.9427 69.9354 43.6215 71.7634C44.2925 73.5706 44.7695 73.9278 45.0441 73.903C45.4496 73.8719 45.7137 73.0102 45.7813 72.681L45.8068 72.5563Z" fill="black"/>
<path d="M45.357 70.7493C45.0352 69.6794 44.4338 69.1513 44.4277 69.1462L44.5296 69.0277C44.5555 69.0501 45.1709 69.5877 45.5065 70.7043L45.357 70.7493Z" fill="black"/>
<path d="M45.9355 72.7031L45.7798 72.6906C45.8217 72.1664 45.7159 71.9459 45.7148 71.9439L45.8541 71.8728C45.8592 71.8828 45.9816 72.1268 45.9355 72.7031Z" fill="black"/>
<path d="M46.4727 73.1904C46.4825 73.0107 46.517 72.8406 46.5605 72.6737C46.6023 72.5063 46.6584 72.3445 46.7178 72.1838C46.7817 72.0249 46.8486 71.8673 46.9298 71.7149C47.0095 71.5621 47.098 71.4126 47.2106 71.2726L47.2252 71.2782L46.8634 72.2399L46.4872 73.196L46.4727 73.1904Z" fill="black"/>
<path d="M46.4766 73.1863C46.5794 73.0738 46.6937 72.9849 46.8125 72.9046C46.9305 72.8227 47.0552 72.7547 47.1814 72.6896C47.3098 72.6289 47.4397 72.5711 47.5762 72.5272C47.7122 72.4817 47.8522 72.4446 48.0039 72.431L48.0108 72.445L47.2506 72.8297L46.4834 73.2003L46.4766 73.1863Z" fill="black"/>
<path d="M47.1614 77.6953C47.2902 77.8039 47.416 77.9111 47.5566 77.9978C47.6218 78.047 47.6935 78.0872 47.761 78.1319C47.8315 78.1725 47.9038 78.2089 47.9743 78.2475C48.2617 78.391 48.5656 78.4969 48.88 78.5222C49.1905 78.5638 49.5119 78.55 49.8232 78.4677L49.9424 78.445L50.0578 78.4069L50.2906 78.3296C50.4467 78.2764 50.593 78.1988 50.7547 78.1427L50.7633 78.1558C50.6173 78.2378 50.4758 78.3288 50.3262 78.4038L50.0946 78.5022L49.9785 78.5508L49.8571 78.5843L49.614 78.65L49.3639 78.6829C49.281 78.6988 49.1964 78.6921 49.1124 78.6926C49.0281 78.6924 48.9439 78.6938 48.8609 78.6774C48.5267 78.6382 48.2024 78.5235 47.9132 78.353C47.6249 78.1811 47.363 77.9642 47.1489 77.705L47.1614 77.6953Z" fill="white"/>
<path d="M65.9582 32.6473C65.8761 32.2273 65.2425 32.4393 65.3239 32.8567C65.6278 34.4143 65.8678 36.0087 65.7425 37.5996C65.6255 39.0852 64.8182 40.3157 63.8835 41.4328C62.9759 42.5175 62.0714 43.5541 61.4822 44.8594C60.9282 46.0863 60.7184 47.5247 60.879 48.8602C61.0587 50.3545 61.5934 51.7856 61.98 53.233C62.3885 54.7624 62.4854 56.2456 62.2327 57.8114C62.0213 59.1213 61.4834 60.3305 60.4376 61.1846C59.4087 62.0248 58.1516 62.37 56.8493 62.0672C55.3317 61.7143 53.9905 60.7477 52.878 59.6906C52.2567 59.1 51.7101 58.4353 51.2365 57.721C50.7652 57.0102 50.4571 56.235 50.1414 55.4473C49.9825 55.0507 49.3468 55.2563 49.5072 55.6566C49.7941 56.3726 50.0689 57.0949 50.4686 57.7577C50.8648 58.4147 51.3409 59.0329 51.8567 59.6001C52.8387 60.6797 54.0494 61.6459 55.3809 62.2569C56.6208 62.8258 58.0396 63.0838 59.3461 62.58C60.5005 62.1348 61.4744 61.3029 62.1074 60.2414C62.8585 58.9818 63.0529 57.4033 63.0606 55.9601C63.0692 54.324 62.5352 52.7683 62.095 51.2124C61.6414 49.6091 61.3139 48.0643 61.6741 46.4045C62.0067 44.8708 62.9264 43.5571 63.9394 42.3932C64.9914 41.1847 66.1079 39.8108 66.3466 38.1756C66.6154 36.3353 66.3108 34.4545 65.9582 32.6473Z" fill="black"/>
<path d="M65.1486 29.4134L65.2 31.1895L64.6925 31.2042L64.6411 29.4281C64.6402 29.3938 64.6672 29.365 64.7016 29.3641L65.0846 29.353C65.119 29.352 65.1475 29.3791 65.1486 29.4134Z" fill="#FFD200"/>
<path d="M64.6169 31.2848L64.563 29.4305C64.561 29.3531 64.6221 29.2884 64.6993 29.2859L65.0823 29.2748C65.1546 29.2728 65.2243 29.3341 65.227 29.4111L65.2807 31.2656L64.6169 31.2848ZM64.7198 29.4417L64.7685 31.1241L65.1198 31.1141L65.0712 29.4316L64.7198 29.4417Z" fill="black"/>
<path d="M66.4235 29.3766L66.4749 31.1527L65.9674 31.1673L65.916 29.3913C65.9151 29.3569 65.9421 29.3281 65.9765 29.3272L66.3595 29.3161C66.3938 29.315 66.4224 29.3422 66.4235 29.3766Z" fill="#FFD200"/>
<path d="M65.8917 31.248L65.838 29.3936C65.8369 29.3563 65.8503 29.3205 65.8761 29.2931C65.9017 29.2658 65.9366 29.2503 65.9741 29.2491L66.3571 29.238C66.4332 29.2345 66.4993 29.2972 66.5018 29.3742V29.3744L66.5555 31.2288L65.8917 31.248ZM65.9947 29.4049L66.0434 31.0872L66.3947 31.0772L66.346 29.3947L65.9947 29.4049Z" fill="black"/>
<path d="M64.0837 30.6948L64.1592 33.2958L67.0016 33.2134L66.9261 30.6123L64.0837 30.6948Z" fill="black"/>
<path d="M64.0859 33.3789L64.0059 30.6217L67.0045 30.5346L67.0845 33.2919L64.0859 33.3789ZM64.1668 30.7734L64.2376 33.2181L66.9236 33.1403L66.8528 30.6956L64.1668 30.7734Z" fill="black"/>
<path d="M61.2707 45.5018C61.3085 46.2587 60.7287 46.8994 59.9752 46.937C59.942 46.9388 59.9085 46.9403 59.8751 46.9388C59.8718 46.9389 59.8718 46.9389 59.8718 46.9389C59.6676 46.9323 59.4744 46.8819 59.2997 46.797C59.2003 46.7484 59.107 46.6864 59.0231 46.6136C58.7441 46.3801 58.5595 46.0317 58.5398 45.6382C58.5225 45.2914 58.6367 44.9681 58.8414 44.7172C59.0739 44.4214 59.4319 44.2263 59.8388 44.206C60.5923 44.1684 61.233 44.7481 61.2707 45.5018Z" fill="#FFD200"/>
<path d="M59.9039 47.0175C59.8931 47.0175 59.8821 47.0174 59.8711 47.0167C59.6594 47.0103 59.4562 46.9599 59.2654 46.8673C59.1601 46.8158 59.0614 46.7503 58.9718 46.6725C58.6682 46.4187 58.4818 46.0429 58.4618 45.6422C58.444 45.288 58.5573 44.942 58.7807 44.6678C59.0339 44.3459 59.4183 44.149 59.8347 44.1282C60.2205 44.1087 60.5896 44.2407 60.8756 44.4993C61.1614 44.758 61.3294 45.1127 61.3486 45.4979C61.3884 46.2948 60.774 46.9755 59.9789 47.0152C59.9541 47.0164 59.9291 47.0175 59.9039 47.0175ZM59.9077 44.2826C59.886 44.2826 59.8644 44.2831 59.8427 44.2842C59.4712 44.3028 59.1287 44.4781 58.9026 44.7655C58.7029 45.0106 58.602 45.3189 58.6177 45.6343C58.6355 45.9915 58.8017 46.3267 59.0731 46.5536C59.1536 46.6234 59.2408 46.6812 59.3339 46.7267C59.5045 46.8095 59.6864 46.8547 59.8741 46.8606C59.9097 46.8627 59.9407 46.8605 59.9711 46.8589C60.6802 46.8233 61.2283 46.2164 61.1926 45.5055C61.1583 44.8184 60.5882 44.2826 59.9077 44.2826Z" fill="black"/>
<path d="M65.6798 55.3946C65.7177 56.1515 65.1379 56.7922 64.3844 56.8299C64.3511 56.8316 64.3177 56.8331 64.2843 56.8316C64.281 56.8317 64.281 56.8317 64.281 56.8317C64.0767 56.8252 63.8838 56.7747 63.7089 56.6899C63.6095 56.6413 63.5162 56.5792 63.4323 56.5064C63.1532 56.2729 62.9687 55.9245 62.949 55.531C62.9316 55.1843 63.0459 54.861 63.2506 54.61C63.4831 54.3142 63.8411 54.1192 64.248 54.0989C65.0015 54.0612 65.6422 54.6409 65.6798 55.3946Z" fill="#FFD200"/>
<path d="M64.3132 56.9102C64.3023 56.9102 64.2912 56.91 64.2803 56.9094C64.0687 56.9032 63.8655 56.8527 63.6747 56.7599C63.5696 56.7086 63.4708 56.6431 63.3813 56.5655C63.0774 56.3112 62.8909 55.9354 62.8709 55.5349C62.8533 55.1802 62.9666 54.8344 63.19 54.5606C63.443 54.2389 63.8276 54.0418 64.244 54.0209C64.6322 54.0012 64.9989 54.1336 65.2849 54.392C65.5707 54.6506 65.7387 55.0053 65.7577 55.3908C65.7771 55.7776 65.6454 56.1481 65.3868 56.4344C65.1283 56.7206 64.7737 56.8888 64.3881 56.9078C64.3636 56.9091 64.3386 56.9102 64.3132 56.9102ZM64.3178 54.1753C64.2959 54.1753 64.274 54.1757 64.252 54.1768C63.8807 54.1956 63.5382 54.3711 63.3121 54.6583C63.1124 54.9031 63.0113 55.2113 63.027 55.5271C63.0449 55.884 63.211 56.2192 63.4827 56.4464C63.5632 56.5161 63.6504 56.5741 63.7433 56.6194C63.914 56.7024 64.0959 56.7475 64.2835 56.7534C64.3192 56.7553 64.3501 56.7533 64.3806 56.7517C64.7244 56.7345 65.0406 56.5847 65.271 56.3295C65.5018 56.0742 65.6191 55.7435 65.6019 55.3985V55.3983C65.5847 55.0549 65.435 54.7384 65.18 54.508C64.9416 54.292 64.6375 54.1753 64.3178 54.1753Z" fill="black"/>
<path d="M58.5758 60.7735C58.6136 61.5304 58.0339 62.1711 57.2804 62.2087C57.2471 62.2105 57.2137 62.212 57.1803 62.2104C57.177 62.2106 57.177 62.2106 57.177 62.2106C56.9727 62.204 56.7796 62.1536 56.6049 62.0687C56.5055 62.0203 56.4122 61.9581 56.3283 61.8853C56.0492 61.6518 55.8647 61.3033 55.845 60.9099C55.8276 60.5631 55.9419 60.2398 56.1466 59.9889C56.3791 59.6931 56.7371 59.498 57.144 59.4777C57.8975 59.4402 58.5382 60.02 58.5758 60.7735Z" fill="#FFD200"/>
<path d="M57.2092 62.2892C57.1983 62.2892 57.1872 62.2891 57.1763 62.2884C56.965 62.2822 56.7619 62.2319 56.5707 62.139C56.4657 62.0876 56.367 62.0223 56.2771 61.9445C55.9734 61.6903 55.7869 61.3143 55.7669 60.9139C55.7493 60.5592 55.8626 60.2134 56.086 59.9397C56.339 59.6179 56.7236 59.4209 57.14 59.3999C57.5271 59.3804 57.8951 59.5126 58.1809 59.771C58.4667 60.0297 58.6347 60.3844 58.6537 60.7699V60.7697C58.6731 61.1566 58.5414 61.5271 58.2828 61.8134C58.0243 62.0997 57.6697 62.2678 57.2841 62.2869C57.2594 62.2881 57.2344 62.2892 57.2092 62.2892ZM57.2138 59.5543C57.1919 59.5543 57.17 59.5548 57.148 59.5559C56.7767 59.5746 56.4342 59.7501 56.2081 60.0373C56.0084 60.2822 55.9073 60.5903 55.923 60.9063C55.9409 61.2632 56.107 61.5984 56.3785 61.8256C56.4592 61.8953 56.5465 61.9532 56.6393 61.9986C56.8103 62.0815 56.992 62.1267 57.1794 62.1325C57.2152 62.134 57.2458 62.1323 57.2764 62.1308C57.6204 62.1136 57.9366 61.9637 58.167 61.7085C58.3978 61.4532 58.5153 61.1226 58.4979 60.7775V60.7774C58.4807 60.4339 58.331 60.1175 58.076 59.887C57.8376 59.671 57.5335 59.5543 57.2138 59.5543Z" fill="black"/>
<path d="M56.4442 68.0348C51.8683 67.371 47.0766 66.5408 42.0909 65.5063C35.0074 64.0318 28.4172 62.3287 22.3564 60.5156L25.5697 59.3288L16.7979 57.7849C18.1479 57.5737 20.1138 57.4487 21.2503 57.1111C18.3604 56.4733 15.0064 55.5144 11.3902 54.0571C7.0917 52.3264 3.52907 50.335 0.713379 48.5068C2.21194 48.1245 4.08521 47.4825 6.08209 46.37C7.26922 45.709 8.27711 45.0067 9.10983 44.3467C6.66182 44.5928 4.21053 44.8389 1.75924 45.0884C4.28163 43.7891 7.07248 42.1754 9.99693 40.1606C10.0227 40.1426 10.0519 40.1243 10.0777 40.1063C10.2327 39.9984 10.3879 39.8902 10.5462 39.7821C10.6657 39.6993 10.782 39.6166 10.9014 39.5303C11.1727 39.3397 11.4438 39.1456 11.7147 38.9481C14.8529 36.662 17.5124 34.3562 19.7255 32.2199C17.7415 31.9847 15.7576 31.7497 13.7735 31.5146C16.3759 30.278 19.1799 28.794 22.0996 27.0168C22.7517 26.6199 23.3871 26.2238 24.0054 25.8219C24.1868 25.7058 24.3682 25.5899 24.5495 25.4705C24.5561 25.4669 24.5592 25.4633 24.5658 25.4597C24.8408 25.2787 25.116 25.0979 25.3844 24.9173C26.2771 24.3177 27.1397 23.7197 27.9659 23.1268C28.037 23.0765 28.1078 23.0228 28.1789 22.9725C28.3853 22.8218 28.5851 22.6748 28.785 22.5277C28.8205 22.5026 28.8527 22.4776 28.8881 22.4524C29.7843 21.7892 30.6406 21.1314 31.4507 20.4859C29.5516 20.2097 27.6557 19.9335 25.7568 19.6606C28.4518 18.8073 31.4601 17.6641 34.645 16.111C36.6747 15.1204 38.5153 14.0924 40.1693 13.0737C38.806 12.9479 37.4457 12.8221 36.0823 12.6963C37.9914 12.0996 40.0084 11.3903 42.1054 10.5433C42.8755 10.2341 43.6251 9.91579 44.3547 9.59858L44.3545 9.5953C46.8046 8.52021 49.0415 7.39543 51.0582 6.27847C50.999 6.36504 49.5474 8.49005 48.966 13.1087C48.7121 15.117 48.6253 17.595 48.8847 20.5806C48.1928 19.1778 47.4977 17.775 46.8025 16.3724C47.1305 18.6559 47.6406 21.2344 48.4445 24.0122C48.4489 24.0321 48.4534 24.0552 48.4611 24.0749C48.5094 24.2396 48.5578 24.4043 48.606 24.5657L48.6061 24.569C48.6141 24.5954 48.6222 24.6249 48.6303 24.6513C48.7186 24.9478 48.8099 25.234 48.9013 25.5236C49.8611 28.541 50.9476 30.8165 52.0301 33.0156C50.8311 31.5646 49.6628 30.4596 48.4636 29.0053C48.8766 31.3847 49.4291 33.9444 50.1694 36.6486C51.2321 40.5232 52.4846 43.9773 53.7576 46.9791C52.3491 45.6154 50.9404 44.2517 49.5318 42.8881C49.69 43.9799 49.8881 45.1334 50.1322 46.3379C50.2339 46.8342 50.3427 47.3403 50.462 47.8559C50.4967 48.0146 50.5347 48.1732 50.5728 48.335C50.5775 48.3615 50.5855 48.3878 50.5903 48.4176C50.6491 48.6553 50.7078 48.8964 50.7702 49.1407C50.7705 49.1474 50.7741 49.1505 50.7744 49.1572C50.9255 49.7715 51.0905 50.3983 51.2695 51.0346C51.6395 52.3533 52.04 53.6101 52.4569 54.7961C52.4689 54.8356 52.4841 54.8716 52.4961 54.9111C52.5588 55.0952 52.6213 55.276 52.6871 55.4532C52.7414 55.6043 52.7957 55.7552 52.8535 55.9062C53.3874 57.3604 53.9428 58.7066 54.4991 59.9389C53.1362 58.8872 51.7731 57.8321 50.4133 56.7769C50.8555 58.4028 51.5612 60.4167 52.713 62.5955C53.9347 64.9077 55.2918 66.7117 56.4442 68.0348Z" fill="#006658"/>
<path d="M56.6414 68.1423L56.433 68.1122C51.6524 67.4185 46.8217 66.5677 42.075 65.5826C35.4165 64.1967 28.7747 62.517 22.3338 60.5905L22.1096 60.5233L25.2713 59.3555L16.3213 57.7801L16.7857 57.7074C17.2439 57.6357 17.7636 57.5751 18.314 57.5107C19.2419 57.4024 20.1976 57.2907 20.9214 57.1174C17.676 56.3836 14.4613 55.3788 11.3608 54.1293C7.6386 52.6306 4.0419 50.7609 0.670539 48.572L0.520996 48.475L0.693823 48.4309C2.56507 47.9534 4.3649 47.2369 6.04394 46.3014C7.02074 45.7576 7.96331 45.1356 8.84901 44.4511L8.73603 44.4625C6.41491 44.6956 4.09066 44.9291 1.76688 45.1656L1.35638 45.2074L1.72328 45.0184C4.57429 43.5497 7.34311 41.8935 9.95253 40.0957L10.0332 40.0416C10.1883 39.9337 10.3435 39.8254 10.5021 39.7171C10.6209 39.6349 10.7367 39.5524 10.8556 39.4664C11.1273 39.2755 11.3981 39.0817 11.6685 38.8844C14.436 36.8686 17.0876 34.6462 19.5522 32.2774L13.495 31.5596L13.7397 31.4435C16.572 30.0977 19.3708 28.5857 22.0588 26.9495C22.772 26.5152 23.3949 26.1247 23.9627 25.7557C24.1443 25.6396 24.3254 25.5238 24.5064 25.4045C24.5159 25.3978 24.5207 25.3947 24.5268 25.3909C24.7975 25.2128 25.0725 25.0322 25.3406 24.8517C26.2349 24.2512 27.1027 23.6494 27.9201 23.0628C27.9557 23.0376 27.9907 23.0118 28.026 22.9861C28.0616 22.9598 28.0976 22.9336 28.1335 22.9081C28.339 22.7582 28.5389 22.6112 28.7387 22.4641L28.843 22.388C29.6708 21.7753 30.4839 21.1528 31.2606 20.5363L30.5098 20.4273C28.9214 20.1961 27.3347 19.9655 25.7457 19.7372L25.4071 19.6891L25.7329 19.5859C28.774 18.6231 31.7608 17.4301 34.6106 16.0407C36.4314 15.1518 38.2193 14.1733 39.9279 13.1298L35.686 12.7382L36.0587 12.6216C38.0892 11.9869 40.1135 11.2634 42.0759 10.4708C42.7422 10.2033 43.4426 9.90923 44.277 9.54717L44.3229 9.52373C46.6064 8.52162 48.8597 7.40669 51.02 6.21003L51.3088 6.05017L51.1226 6.32254C50.9691 6.54693 49.6068 8.64304 49.0433 13.1186C48.7566 15.3856 48.7294 17.8939 48.9624 20.5738L48.9983 20.9879L48.8144 20.6149C48.1954 19.3603 47.5737 18.1054 46.9519 16.8506C47.3213 19.2722 47.8481 21.6717 48.5192 23.9904C48.5248 24.0161 48.5281 24.0325 48.5334 24.0465C48.5839 24.2174 48.6324 24.382 48.6805 24.5434L48.7045 24.6282C48.7831 24.8917 48.8635 25.1465 48.9446 25.4028L48.9752 25.5002C49.917 28.461 50.9905 30.7284 52.0997 32.9811L52.3945 33.5797L51.9693 33.0653C51.3743 32.3454 50.7766 31.6996 50.1984 31.075C49.6734 30.5078 49.1324 29.9232 48.5906 29.2805C49.0275 31.7438 49.5835 34.2141 50.244 36.6281C51.2069 40.1387 52.4131 43.6108 53.8289 46.9486L53.9793 47.3032L49.6418 43.1042C49.7995 44.1632 49.9896 45.2449 50.2079 46.3226C50.3198 46.868 50.4275 47.364 50.5373 47.8385C50.5658 47.9687 50.5963 48.0978 50.6272 48.2287L50.6481 48.3173C50.6509 48.3325 50.6534 48.3429 50.6561 48.3537C50.6599 48.3703 50.6639 48.3875 50.6667 48.4056L50.7038 48.5545C50.7499 48.7414 50.7964 48.9305 50.845 49.1216L50.8463 49.1263C50.8486 49.1327 50.851 49.1422 50.8514 49.1538C51.001 49.7552 51.1674 50.3859 51.3437 51.0133C51.6979 52.2756 52.0968 53.5396 52.5297 54.77C52.5364 54.7919 52.5427 54.8094 52.5491 54.827C52.5563 54.8472 52.5636 54.8674 52.5699 54.8885C52.6316 55.0694 52.6939 55.2494 52.7592 55.426C52.8138 55.5773 52.8677 55.7279 52.9254 55.8784C53.4305 57.2541 53.9836 58.6092 54.5692 59.9068L54.6978 60.1919L54.4502 60.0007C53.1494 58.9969 51.8484 57.9901 50.5503 56.983C51.0907 58.9053 51.8407 60.7802 52.7811 62.5591C53.8087 64.5038 55.0608 66.3289 56.5024 67.9837L56.6414 68.1423ZM22.6031 60.5078C28.9695 62.4052 35.5299 64.0608 42.1067 65.4298C46.7817 66.3999 51.5382 67.2398 56.2478 67.9272C54.8561 66.3056 53.644 64.525 52.6435 62.6317C51.6607 60.7728 50.8849 58.81 50.3373 56.7972L50.2759 56.5717L50.4606 56.7152C51.7384 57.7068 53.0193 58.6981 54.3 59.687C53.7598 58.4725 53.2488 57.2113 52.7796 55.9332C52.7221 55.7827 52.6674 55.6312 52.613 55.4796C52.5474 55.3026 52.4847 55.1211 52.4216 54.9363C52.4152 54.9152 52.4089 54.8977 52.4025 54.88C52.3953 54.8599 52.388 54.8397 52.3817 54.8186C51.9489 53.5884 51.5488 52.3212 51.1936 51.0557C51.0168 50.4267 50.85 49.7941 50.698 49.176C50.6972 49.1733 50.6944 49.166 50.6928 49.1553C50.6444 48.9655 50.5983 48.7777 50.5523 48.592L50.5141 48.4367C50.5105 48.4158 50.5073 48.4025 50.5044 48.3895C50.5009 48.3756 50.498 48.362 50.4956 48.3484L50.4756 48.2646C50.4444 48.1328 50.4136 48.0028 50.3853 47.8726C50.2754 47.3977 50.1672 46.9005 50.0551 46.3537C49.8206 45.1958 49.6185 44.0335 49.4541 42.8992L49.4213 42.6728L53.5367 46.6567C52.1822 43.421 51.0246 40.0632 50.0936 36.6692C49.4059 34.1563 48.8314 31.5824 48.3864 29.0187L48.3359 28.7279L48.5236 28.9556C49.125 29.685 49.7292 30.3377 50.3134 30.969C50.7608 31.4525 51.2202 31.9487 51.6815 32.4826C50.6686 30.4068 49.6924 28.2702 48.8264 25.5475L48.7956 25.45C48.7144 25.193 48.6338 24.9375 48.5552 24.6737L48.5281 24.579C48.4808 24.4204 48.4333 24.2588 48.3859 24.0969C48.3797 24.0816 48.374 24.0568 48.3694 24.0344C47.651 21.5522 47.0977 18.9784 46.725 16.3837L46.6556 15.9005L46.8725 16.3379C47.5069 17.6178 48.1414 18.8981 48.7733 20.178C48.5764 17.6408 48.615 15.2612 48.8885 13.099C49.3654 9.31012 50.4159 7.20433 50.8327 6.49192C48.7641 7.62748 46.6134 8.68757 44.435 9.64546L44.4351 9.64562L44.3859 9.67046C43.5298 10.0425 42.8142 10.343 42.1346 10.616C40.2879 11.3617 38.3859 12.0467 36.4758 12.6543L40.4098 13.0174L40.2104 13.1403C38.437 14.2324 36.5762 15.2554 34.6795 16.1811C31.9241 17.5248 29.0406 18.6848 26.1043 19.6316C27.5808 19.8441 29.0559 20.0586 30.5323 20.2732L31.6407 20.4343L31.4996 20.5468C30.6787 21.2011 29.816 21.8633 28.9348 22.5154L28.8305 22.5913C28.6314 22.7379 28.4314 22.885 28.2249 23.0358C28.1888 23.0612 28.1538 23.087 28.1185 23.1128C28.0827 23.139 28.047 23.1653 28.011 23.1908C27.1927 23.778 26.3235 24.3807 25.428 24.9822C25.1594 25.163 24.8842 25.3439 24.6087 25.525C24.5995 25.5314 24.5945 25.5349 24.5878 25.5388C24.4112 25.6555 24.2295 25.7716 24.0477 25.8877C23.4791 26.2574 22.855 26.6487 22.1404 27.0836C19.5252 28.6757 16.8048 30.1502 14.051 31.4689L19.8983 32.162L19.7799 32.2762C17.2766 34.6929 14.5785 36.9589 11.7608 39.0116C11.4897 39.2092 11.2183 39.4036 10.9465 39.5944C10.8276 39.6804 10.7109 39.7633 10.5912 39.8465C10.4324 39.9548 10.2776 40.0627 10.1229 40.1706L10.0419 40.2248C7.53781 41.9499 4.88775 43.5447 2.15894 44.9692C4.34708 44.7469 6.53523 44.527 8.72072 44.3075L9.36764 44.2424L9.15856 44.4081C8.20505 45.1638 7.18278 45.8468 6.12035 46.4383C4.48131 47.3518 2.72758 48.0576 0.905246 48.5381C4.22504 50.68 7.76158 52.5122 11.4195 53.9848C14.6115 55.2713 17.9247 56.2973 21.2673 57.035L21.5625 57.1002L21.2728 57.1863C20.5143 57.4115 19.4052 57.5412 18.3327 57.6663C17.9701 57.7088 17.6205 57.7495 17.2939 57.7931L25.8683 59.3022L22.6031 60.5078Z" fill="black"/>
<path d="M39.2694 20.7888C39.1931 20.7888 39.1234 20.7738 39.0628 20.7406C38.6323 20.5045 38.7603 19.6783 38.8723 19.214C38.5435 19.5345 37.9138 20.0299 37.4281 19.6983C37.3306 19.6316 37.2733 19.5339 37.2575 19.408C37.1756 18.744 38.3527 17.4083 38.4029 17.3517L38.5198 17.4555C38.1912 17.826 37.3516 18.8957 37.4127 19.3889C37.4225 19.4695 37.4564 19.5286 37.5163 19.5692C38.0733 19.9503 38.9631 18.8903 38.972 18.8795L39.2302 18.5684L39.1064 18.9534C38.9823 19.3397 38.7461 20.3888 39.1377 20.6037C39.5341 20.8212 40.6401 19.8774 41.033 19.4952L41.1419 19.6072C41.0055 19.74 39.9074 20.7888 39.2694 20.7888Z" fill="black"/>
<path d="M43.3379 31.2958C43.2908 31.2958 43.2458 31.2886 43.2035 31.273C42.7425 31.1039 42.7453 30.2679 42.7867 29.7919C42.5098 30.1579 41.961 30.7415 41.4313 30.4867C41.3247 30.4354 41.2533 30.3474 41.2193 30.2252C41.0388 29.5811 42.0029 28.084 42.0439 28.0205L42.1751 28.1057C41.9056 28.5212 41.2355 29.7046 41.3697 30.1832C41.3918 30.2613 41.434 30.3146 41.4991 30.346C42.1082 30.6385 42.8281 29.458 42.8355 29.4461L43.0441 29.1003L42.9794 29.4989C42.9146 29.8993 42.838 30.9725 43.2572 31.1261C43.6843 31.2827 44.6341 30.183 44.9653 29.7464L45.0899 29.8408C44.9697 29.9991 43.9674 31.2958 43.3379 31.2958Z" fill="black"/>
<path d="M42.1513 51.5212C42.1499 51.5212 42.1485 51.5212 42.1473 51.5212C41.6563 51.5154 41.3805 50.7262 41.2608 50.2639C41.1215 50.7012 40.8006 51.4346 40.2144 51.3707C40.0969 51.3579 40.0005 51.2986 39.9274 51.1949C39.5425 50.6478 39.9525 48.9147 39.97 48.8412L40.1221 48.8777C40.0066 49.3594 39.7692 50.6986 40.0552 51.105C40.1019 51.1714 40.1596 51.2074 40.2315 51.2153C40.8982 51.2919 41.1887 49.9354 41.1914 49.9216L41.2728 49.5255L41.3448 49.9235C41.417 50.3228 41.7024 51.3597 42.1491 51.365C42.1501 51.365 42.151 51.365 42.1518 51.365C42.6038 51.365 43.1334 50.0159 43.2997 49.4949L43.4486 49.5426C43.3838 49.7452 42.7984 51.5212 42.1513 51.5212Z" fill="black"/>
<path d="M17.489 42.0849C17.4382 42.0849 17.3899 42.0767 17.3448 42.0592C16.8877 41.8801 16.9086 41.0444 16.9602 40.5695C16.6757 40.9292 16.1145 41.5016 15.5903 41.2347C15.4849 41.1811 15.4156 41.0917 15.384 40.9687C15.2174 40.3209 16.2139 38.8451 16.2564 38.7826L16.3855 38.8705C16.1072 39.28 15.4117 40.4487 15.5353 40.93C15.5556 41.0086 15.5968 41.0628 15.6612 41.0955C16.2634 41.401 17.0091 40.2365 17.0166 40.2248L17.2327 39.8838L17.1594 40.2807C17.0858 40.6797 16.9862 41.7507 17.4021 41.9135C17.8225 42.0792 18.7991 41.0005 19.1396 40.5712L19.262 40.6683C19.1391 40.8231 18.1192 42.0849 17.489 42.0849Z" fill="black"/>
<path d="M27.0853 58.1167C27.0347 58.1167 26.9864 58.1084 26.9412 58.0909C26.484 57.9117 26.5051 57.0761 26.5567 56.6014C26.2721 56.9613 25.7108 57.5335 25.1866 57.2665C25.0811 57.2129 25.0117 57.1235 24.9802 57.0005C24.8137 56.3526 25.8101 54.8767 25.8526 54.8142L25.9816 54.9021C25.7033 55.3116 25.0078 56.4803 25.1316 56.9616C25.1517 57.0403 25.193 57.0946 25.2575 57.1274C25.8598 57.433 26.6056 56.2684 26.6129 56.2567L26.8292 55.9156L26.7558 56.3126C26.6822 56.7116 26.5823 57.7824 26.9984 57.9454C27.4171 58.1104 28.3953 57.0322 28.7359 56.603L28.8583 56.7C28.7356 56.8547 27.7154 58.1167 27.0853 58.1167Z" fill="black"/>
<path d="M45.9574 62.5617C45.9553 62.5617 45.9536 62.5617 45.9516 62.5617C45.4605 62.5536 45.1884 61.7631 45.071 61.3001C44.9298 61.7365 44.6004 62.4673 44.0194 62.4019C43.9019 62.3884 43.8056 62.3287 43.7331 62.2245C43.3509 61.6754 43.7695 59.9446 43.7875 59.8712L43.9392 59.9084C43.8213 60.3895 43.5775 61.7274 43.8614 62.1351C43.9078 62.2019 43.9653 62.2381 44.0372 62.2464C44.7093 62.3225 45.0006 60.9708 45.0035 60.9572L45.087 60.5624L45.1568 60.9599C45.2272 61.3596 45.5075 62.3981 45.9542 62.4055C45.9556 62.4055 45.9569 62.4055 45.958 62.4055C46.4097 62.4055 46.9451 61.0608 47.1139 60.5409L47.2625 60.5892C47.1965 60.7916 46.6034 62.5616 45.9574 62.5617Z" fill="black"/>
<path d="M53.4769 5.30277L55.0497 0.710058L51.1477 3.54419L47.1852 0.414097L49.2061 5.01603L44.4734 7.80219L48.7189 7.52373C47.3493 8.22425 45.894 8.91947 44.3545 9.59514L44.3546 9.59843C44.7017 10.1894 45.2511 10.9476 46.0945 11.6375C47.1438 12.501 48.2204 12.9085 48.966 13.1086C49.2343 10.9771 49.6874 9.38294 50.104 8.26894L50.662 12.6641L52.3676 7.7139L57.1985 8.28098L53.4769 5.30277Z" fill="#FFD200"/>
<path d="M49.0322 13.2073L48.9454 13.184C47.8671 12.8945 46.8912 12.3944 46.0446 11.6978C45.3448 11.1256 44.7534 10.4324 44.2869 9.63796L44.2773 9.6214L44.274 9.54842L44.3227 9.52358C45.6747 8.93025 47.0258 8.29285 48.3437 7.62655L44.1499 7.90157L49.1064 4.98384L46.9875 0.158295L51.1495 3.44606L55.2036 0.501603L53.5686 5.27605L57.46 8.39052L52.4209 7.79906L50.6268 13.0067L50.0673 8.5996C49.5969 9.93689 49.2528 11.4551 49.0434 13.1186L49.0322 13.2073ZM44.4652 9.63187C44.9154 10.3797 45.4797 11.034 46.1438 11.5772C46.9504 12.2408 47.8772 12.7224 48.8998 13.0095C49.128 11.2423 49.5085 9.63874 50.0307 8.2416L50.1416 7.94517L50.6973 12.3221L52.3142 7.62905L56.9367 8.17175L53.3852 5.32965L54.8956 0.918668L51.1456 3.64232L47.3828 0.669898L49.3058 5.04853L44.7964 7.70281L49.0912 7.42122L48.7543 7.59358C47.3523 8.31036 45.9097 8.99588 44.4652 9.63187Z" fill="black"/>
<path d="M48.6302 24.6514C47.8464 24.8878 47.0508 25.0879 46.2497 25.245C45.8065 25.3408 45.3626 25.4197 44.9146 25.4856C44.7952 25.505 44.6757 25.521 44.5561 25.537C41.4651 25.959 38.2794 25.7571 35.2235 25.1444C33.7715 24.8526 32.3022 24.5482 30.8894 24.1041C29.9521 23.81 29.0503 23.4239 28.1787 22.9726C28.3851 22.822 28.585 22.6749 28.7849 22.5279C29.7135 22.9829 30.6752 23.3628 31.682 23.6433C32.5734 23.8896 33.4704 24.1121 34.3761 24.3076C34.8119 24.3995 35.2441 24.4848 35.6824 24.5598C35.6857 24.5596 35.6857 24.5596 35.6857 24.5596C37.3116 24.8528 38.9522 25.0383 40.5989 25.0795C43.2665 25.1467 45.8983 24.7645 48.4446 24.0121C48.4489 24.0319 48.4535 24.0551 48.4611 24.0747C48.5094 24.2394 48.5578 24.4041 48.606 24.5656L48.6061 24.5688C48.6141 24.5953 48.6222 24.6249 48.6302 24.6514Z" fill="black"/>
<path d="M36.6205 23.1947C36.6582 23.9491 36.0772 24.5912 35.3228 24.629C34.5683 24.6667 33.9263 24.0857 33.8885 23.3312C33.8508 22.5768 34.4318 21.9347 35.1862 21.8969C35.9408 21.8593 36.5829 22.4402 36.6205 23.1947Z" fill="#FFD200"/>
<path d="M35.2528 24.7089C34.894 24.7089 34.5529 24.5776 34.2847 24.3351C33.9985 24.076 33.8302 23.7207 33.8109 23.3352C33.7916 22.9493 33.9236 22.5792 34.1827 22.2929C34.4418 22.0065 34.7971 21.8382 35.1826 21.8189C35.9747 21.7797 36.6591 22.3945 36.6988 23.1906C36.7387 23.9869 36.1232 24.6671 35.327 24.7068C35.302 24.7082 35.2773 24.7089 35.2528 24.7089ZM35.2554 21.9733C35.2339 21.9733 35.2122 21.9738 35.1904 21.9749C34.8463 21.9921 34.5296 22.1422 34.2985 22.3977C34.0674 22.6532 33.9496 22.9832 33.9667 23.3272C33.9839 23.6713 34.1341 23.9882 34.3896 24.2191C34.6449 24.4504 34.9739 24.5674 35.3189 24.5509C36.0293 24.5154 36.5782 23.9088 36.5427 23.1986C36.5084 22.5101 35.9374 21.9733 35.2554 21.9733Z" fill="black"/>
<path d="M47.1557 26.4657C47.1934 27.2201 46.6124 27.8622 45.8579 27.9C45.1035 27.9377 44.4614 27.3567 44.4236 26.6023C44.3859 25.8479 44.9669 25.2058 45.7214 25.168C46.476 25.1301 47.118 25.7113 47.1557 26.4657Z" fill="#FFD200"/>
<path d="M45.7887 27.9797C45.0244 27.9797 44.3842 27.3778 44.3456 26.606C44.3057 25.8099 44.9213 25.1297 45.7174 25.0898C46.5114 25.0489 47.1938 25.6653 47.2336 26.4617C47.2735 27.258 46.658 27.9382 45.8618 27.9779C45.8373 27.9793 45.8129 27.9797 45.7887 27.9797ZM45.7902 25.2444C45.7687 25.2444 45.7469 25.2448 45.7252 25.2459C45.0149 25.2817 44.4659 25.8882 44.5014 26.5982C44.5372 27.3084 45.1481 27.8579 45.8537 27.8221C46.564 27.7864 47.113 27.18 47.0775 26.4698C47.0431 25.7811 46.4722 25.2444 45.7902 25.2444Z" fill="black"/>
<path d="M52.6866 55.453C49.6701 55.5604 46.6456 55.5777 43.6326 55.4174C40.7233 55.2619 37.8279 54.9186 34.9827 54.3053C34.5637 54.2159 34.1443 54.1198 33.7248 54.0171C33.6876 54.009 33.6538 54.0006 33.6165 53.9892C30.4753 53.2068 27.4527 52.0576 24.5198 50.6931C21.556 49.3136 18.6901 47.6183 16.0344 45.7152C15.8089 45.5527 15.5869 45.3899 15.3647 45.2239C15.0834 45.0141 14.8087 44.8005 14.5337 44.5836C14.5304 44.5837 14.5304 44.5837 14.5302 44.5804C13.7538 43.9607 13.0095 43.3127 12.2963 42.623C11.4916 41.8374 10.7412 41.0025 9.99707 40.1606C10.0229 40.1426 10.0521 40.1243 10.0779 40.1063C10.2329 39.9984 10.388 39.8902 10.5463 39.7821C11.3786 40.7165 12.2207 41.6472 13.1356 42.4975C14.4745 43.7376 15.918 44.8622 17.433 45.8796C19.2455 47.0961 21.1269 48.2221 23.0691 49.2249L23.0725 49.228C23.2753 49.3382 23.481 49.4416 23.6868 49.5449C27.3078 51.3663 31.1325 52.783 35.0935 53.6481C38.5305 54.3956 42.0309 54.7388 45.5459 54.8405L45.5491 54.8403C46.1386 54.861 46.7241 54.8719 47.3126 54.876C47.316 54.8791 47.3158 54.8758 47.3158 54.8758C49.0314 54.8903 50.7447 54.8581 52.4564 54.7961C52.4684 54.8356 52.4836 54.8716 52.4956 54.9111C52.5585 55.0952 52.621 55.2758 52.6866 55.453Z" fill="black"/>
<path d="M25.3544 48.141C25.3921 48.8955 24.8111 49.5376 24.0567 49.5754C23.3022 49.613 22.6602 49.0321 22.6223 48.2776C22.5847 47.5232 23.1657 46.8811 23.9201 46.8433C24.6745 46.8055 25.3168 47.3866 25.3544 48.141Z" fill="#FFD200"/>
<path d="M23.9874 49.6551C23.2231 49.6551 22.5829 49.0532 22.5443 48.2814C22.525 47.8956 22.6572 47.5255 22.9162 47.2391C23.1753 46.9527 23.5307 46.7844 23.9162 46.7652C24.7083 46.7258 25.3927 47.3408 25.4324 48.137C25.4722 48.9333 24.8567 49.6135 24.0606 49.6532C24.0362 49.6544 24.0116 49.6551 23.9874 49.6551ZM23.9891 46.9197C23.9676 46.9197 23.9459 46.9202 23.9241 46.9213C23.5801 46.9385 23.2632 47.0886 23.0322 47.3441C22.8011 47.5996 22.6833 47.9296 22.7003 48.2736C22.7361 48.9839 23.345 49.5343 24.0526 49.4974C24.763 49.4618 25.3119 48.8553 25.2764 48.1451C25.2419 47.4565 24.6709 46.9197 23.9891 46.9197Z" fill="black"/>
<path d="M35.4033 55.2235C35.4409 55.9779 34.8599 56.62 34.1055 56.6578C33.3511 56.6955 32.709 56.1145 32.6712 55.3601C32.6335 54.6056 33.2145 53.9635 33.9689 53.9257C34.7234 53.8879 35.3654 54.4691 35.4033 55.2235Z" fill="#FFD200"/>
<path d="M34.0362 56.7375C33.2716 56.7375 32.6316 56.1356 32.5931 55.364C32.5533 54.5676 33.1688 53.8874 33.9648 53.8477C34.7593 53.8052 35.4413 54.4233 35.481 55.2194C35.5209 56.0157 34.9054 56.6959 34.1094 56.7356C34.0848 56.7369 34.0604 56.7375 34.0362 56.7375ZM34.0376 54.0021C34.0161 54.0021 33.9943 54.0026 33.9726 54.0037C33.2624 54.0393 32.7135 54.6458 32.7489 55.356C32.7846 56.0661 33.3916 56.6134 34.1012 56.5797C34.8114 56.5441 35.3604 55.9376 35.3249 55.2274C35.2905 54.5389 34.7196 54.0021 34.0376 54.0021Z" fill="black"/>
<path d="M47.8183 53.7476C47.856 54.502 47.275 55.1441 46.5205 55.1819C45.7661 55.2196 45.124 54.6386 45.0862 53.8842C45.0485 53.1297 45.6295 52.4877 46.384 52.4498C47.1384 52.4122 47.7805 52.9932 47.8183 53.7476Z" fill="#FFD200"/>
<path d="M46.4505 55.2616C46.0915 55.2616 45.7503 55.1304 45.4821 54.8878C45.1957 54.6288 45.0274 54.2736 45.0082 53.8881C44.9683 53.0918 45.5839 52.4116 46.38 52.3719C47.1715 52.3317 47.8565 52.9474 47.8962 53.7435C47.9361 54.5398 47.3206 55.2201 46.5244 55.2597C46.4995 55.261 46.4749 55.2616 46.4505 55.2616ZM46.453 52.5262C46.4314 52.5262 46.4097 52.5267 46.388 52.5278C45.6776 52.5633 45.1287 53.1699 45.1641 53.8801C45.1813 54.224 45.3315 54.5408 45.587 54.7721C45.8423 55.003 46.1706 55.12 46.5164 55.1038C47.2268 55.0682 47.7757 54.4617 47.7403 53.7515C47.7057 53.0632 47.1348 52.5262 46.453 52.5262Z" fill="black"/>
<path d="M15.5444 45.837C15.582 46.5914 15.001 47.2335 14.2466 47.2713C13.4922 47.3089 12.8501 46.728 12.8123 45.9735C12.7746 45.2191 13.3556 44.577 14.11 44.5392C14.8645 44.5014 15.5067 45.0825 15.5444 45.837Z" fill="#FFD200"/>
<path d="M14.1773 47.351C13.4127 47.3511 12.7727 46.7491 12.7343 45.9774C12.6944 45.1811 13.3099 44.5009 14.1059 44.4612C14.9002 44.4189 15.5823 45.0367 15.6221 45.8329C15.6415 46.2187 15.5095 46.5889 15.2504 46.8752C14.9913 47.1616 14.636 47.3299 14.2505 47.3491C14.2259 47.3504 14.2016 47.351 14.1773 47.351ZM14.1787 44.6156C14.1572 44.6156 14.1355 44.6161 14.1137 44.6172C13.4035 44.6528 12.8546 45.2593 12.89 45.9695C12.9257 46.6797 13.5332 47.2305 14.2423 47.1932C14.5864 47.176 14.9032 47.0258 15.1343 46.7703C15.3656 46.5148 15.4832 46.1848 15.466 45.8409C15.4317 45.1525 14.8607 44.6156 14.1787 44.6156Z" fill="black"/>
<path d="M50.5902 48.4176C50.6489 48.6553 50.7077 48.8964 50.77 49.1407C49.3158 48.605 47.9224 47.9459 46.562 47.2116C45.2016 46.4773 43.872 45.6913 42.5795 44.8467C41.9993 44.4745 41.4285 44.0885 40.8669 43.6888C38.1579 41.7885 35.6271 39.6418 33.3181 37.2535C29.8988 33.7171 26.9273 29.7741 24.0054 25.8219C24.1868 25.7058 24.3682 25.5899 24.5495 25.4705C24.556 25.4669 24.5592 25.4633 24.5657 25.4597C26.014 27.4164 27.4719 29.3659 29.0008 31.2617C30.7359 33.408 32.5101 35.5289 34.4725 37.4733C36.3787 39.3636 38.439 41.126 40.6042 42.7126C42.8391 44.3559 45.2475 45.7934 47.7112 47.0641C48.562 47.4996 49.4304 47.8874 50.3136 48.2343C50.3989 48.2701 50.4875 48.3025 50.5727 48.3351C50.7703 48.4122 50.9646 48.4861 51.1622 48.5597C50.9578 48.553 50.7649 48.5025 50.5902 48.4176Z" fill="black"/>
<path d="M42.5878 44.9416C42.6255 45.696 42.0445 46.3381 41.2901 46.3759C40.5356 46.4136 39.8936 45.8326 39.8557 45.0781C39.8181 44.3237 40.3991 43.6816 41.1535 43.6438C41.9079 43.6062 42.5502 44.1871 42.5878 44.9416Z" fill="#FFD200"/>
<path d="M41.22 46.4558C40.8611 46.4558 40.5196 46.3247 40.2517 46.082C39.9652 45.8229 39.7969 45.4677 39.7777 45.0821C39.7379 44.2857 40.3534 43.6055 41.1495 43.5658C41.5378 43.5474 41.9055 43.6787 42.1918 43.9377C42.4782 44.1968 42.6465 44.552 42.6658 44.9375C42.7056 45.7338 42.0901 46.414 41.2939 46.4537C41.2692 46.4551 41.2445 46.4558 41.22 46.4558ZM41.2233 43.7204C41.2014 43.7204 41.1795 43.7209 41.1575 43.7219C40.4471 43.7576 39.8982 44.364 39.9337 45.0742C39.9508 45.4183 40.101 45.7351 40.3565 45.9662C40.612 46.1971 40.942 46.3137 41.286 46.2979C41.9963 46.2625 42.5453 45.6559 42.5098 44.9456C42.4926 44.6015 42.3424 44.285 42.087 44.0537C41.8479 43.8374 41.5435 43.7204 41.2233 43.7204Z" fill="black"/>
<path d="M52.5612 47.1224C52.599 47.8793 52.0193 48.52 51.2658 48.5576C51.2325 48.5594 51.199 48.5609 51.1656 48.5594C51.1623 48.5595 51.1623 48.5595 51.1623 48.5595C50.9581 48.553 50.7649 48.5025 50.5902 48.4176C50.4909 48.369 50.3976 48.307 50.3137 48.2342C50.0346 48.0007 49.85 47.6523 49.8303 47.2588C49.813 46.912 49.9272 46.5887 50.1319 46.3378C50.3644 46.042 50.7224 45.847 51.1293 45.8266C51.8828 45.7891 52.5235 46.3689 52.5612 47.1224Z" fill="#FFD200"/>
<path d="M51.1946 48.6381C51.1837 48.6381 51.1726 48.638 51.1616 48.6373C50.9501 48.6311 50.7469 48.5808 50.556 48.4881C50.4505 48.4364 50.3519 48.3709 50.2625 48.2934C49.9587 48.0393 49.7723 47.6633 49.7523 47.2628C49.7345 46.9084 49.8478 46.5626 50.0712 46.2885C50.3242 45.9668 50.7088 45.7698 51.1252 45.7488C51.9233 45.7085 52.5996 46.3236 52.6393 47.1186C52.6586 47.5055 52.5269 47.8762 52.2683 48.1623C52.0098 48.4486 51.6551 48.6167 51.2695 48.6358C51.2448 48.637 51.2196 48.6381 51.1946 48.6381ZM51.198 45.9032C51.1765 45.9032 51.1551 45.9037 51.1332 45.9048C50.7619 45.9235 50.4194 46.099 50.1933 46.3862C49.9936 46.6312 49.8926 46.9395 49.9084 47.255C49.9262 47.6122 50.0923 47.9474 50.3639 48.1745C50.4442 48.2442 50.5314 48.302 50.6246 48.3476C50.7954 48.4304 50.9771 48.4756 51.1648 48.4815C51.2007 48.4834 51.2313 48.4814 51.2618 48.4798C51.6056 48.4626 51.922 48.3128 52.1523 48.0576C52.3831 47.8023 52.5005 47.4716 52.4833 47.1266C52.4489 46.439 51.8787 45.9032 51.198 45.9032Z" fill="black"/>
<path d="M31.5898 44.7155C31.5809 44.7175 31.5735 44.7169 31.5646 44.7189C28.826 44.9675 26.129 43.7801 24.2562 41.8051C23.5885 41.1017 22.9374 40.206 22.4805 39.232C21.7635 37.7172 21.524 36.014 22.4512 34.5634C23.3143 33.222 24.5874 33.476 25.7923 34.2079C26.8549 34.855 27.8676 35.8768 28.4899 36.5057C29.0327 37.047 29.6059 37.546 30.2873 37.9018C31.384 38.482 32.6449 38.5715 33.7559 39.0917C33.9753 39.1941 34.2155 39.3246 34.4539 39.4886C35.1459 39.9505 35.837 40.6225 36.0292 41.3394C36.593 43.4863 33.1293 44.5729 31.5898 44.7155Z" fill="black"/>
<path d="M30.8538 44.8281C28.4302 44.8281 25.9914 43.7488 24.1993 41.8588C23.4687 41.0894 22.8332 40.1684 22.4094 39.2652C21.8162 38.0119 21.3304 36.1713 22.3852 34.5214C23.1448 33.3406 24.3049 33.2133 25.8327 34.1412C26.9088 34.7965 27.9331 35.8321 28.5451 36.4509C28.9893 36.8937 29.5931 37.4513 30.3233 37.8326C30.8992 38.1373 31.5345 38.3087 32.1493 38.4743C32.6965 38.6218 33.2625 38.7745 33.7888 39.0209C34.0419 39.1391 34.2804 39.2747 34.4979 39.4242C34.8995 39.6924 35.8619 40.4151 36.1044 41.3192C36.2465 41.8604 36.1521 42.3723 35.8236 42.8416C34.9739 44.0552 32.7862 44.6817 31.6022 44.7925L31.5836 44.795C31.3411 44.817 31.0973 44.8281 30.8538 44.8281ZM31.5573 44.6412L31.5833 44.7165L31.5734 44.6392L31.5825 44.6376C32.8226 44.5229 34.9187 43.8619 35.6956 42.752C35.9964 42.3223 36.0832 41.8538 35.9533 41.3596C35.7247 40.507 34.7979 39.8127 34.4102 39.5538C34.199 39.4085 33.968 39.2772 33.7227 39.1627C33.2086 38.922 32.6493 38.7711 32.1085 38.6254C31.4856 38.4575 30.8417 38.2837 30.2507 37.971C29.5022 37.58 28.8867 37.0122 28.4344 36.5614C27.827 35.9473 26.8112 34.9201 25.7514 34.2748C24.2897 33.3869 23.2317 33.4949 22.5168 34.6057C21.5006 36.1954 21.9744 37.9809 22.551 39.1988C22.9677 40.0873 23.5934 40.9936 24.3127 41.7513C26.2524 43.7968 28.9596 44.8764 31.5573 44.6412Z" fill="black"/>
<path d="M31.5893 44.7155C31.5804 44.7175 31.5731 44.7169 31.5641 44.7189C28.8255 44.9675 26.1286 43.7801 24.2557 41.8051C23.588 41.1017 22.9369 40.206 22.48 39.232C24.1587 38.5101 26.37 38.6715 28.31 39.8388C30.26 41.0086 31.4432 42.8867 31.5893 44.7155Z" fill="#FF2A2A"/>
<path d="M30.8536 44.8281C28.43 44.8281 25.9912 43.7488 24.1991 41.8588C23.4685 41.0894 22.833 40.1684 22.4092 39.2652L22.375 39.1922L22.4492 39.1603C24.2061 38.4048 26.4677 38.6392 28.3503 39.7718C30.2438 40.9077 31.5148 42.7995 31.6673 44.7092L31.6726 44.7761L31.5835 44.7951C31.341 44.817 31.0971 44.8281 30.8536 44.8281ZM22.5858 39.2724C23.0021 40.137 23.6129 41.0144 24.3125 41.7512C26.2391 43.783 28.9233 44.8627 31.5048 44.6456C31.329 42.8112 30.0955 41.0009 28.2698 39.9057C26.456 38.8144 24.2866 38.575 22.5858 39.2724Z" fill="black"/>
<path d="M32.0624 27.1527L31.6089 27.9936L35.3715 30.0228L35.825 29.1819L32.0624 27.1527Z" fill="black"/>
<path d="M35.401 30.1291L31.501 28.0258L32.0287 27.0472L35.9287 29.1505L35.401 30.1291ZM31.7127 27.9624L35.3374 29.9174L35.7168 29.2141L32.0921 27.2591L31.7127 27.9624Z" fill="black"/>
<path d="M49.8019 36.7203C47.1516 41.6344 41.9886 44.016 38.1489 42.1492C38.0706 42.1102 37.9925 42.0712 37.9156 42.0298C37.6657 41.8951 37.4296 41.7451 37.2037 41.5811L37.2015 41.58C37.0891 41.4968 36.9825 41.4135 36.8764 41.3239C36.3333 40.8692 35.8689 40.3245 35.4938 39.7113C33.8164 36.9789 33.8306 32.8784 35.824 29.1822L49.8019 36.7203Z" fill="black"/>
<path d="M40.9941 42.8709C39.9979 42.8709 39.0228 42.6609 38.1145 42.2193C38.0279 42.1762 37.9524 42.1384 37.8781 42.0984C37.6334 41.9663 37.3907 41.8137 37.1574 41.6444C37.035 41.5541 36.9275 41.4694 36.8259 41.3836C36.2809 40.9275 35.8101 40.3784 35.4269 39.7521C33.6832 36.9117 33.812 32.7483 35.7551 29.1451L35.7921 29.0764L49.9075 36.6887L49.8704 36.7575C47.8137 40.5709 44.2909 42.8709 40.9941 42.8709ZM35.8557 29.288C33.9738 32.827 33.856 36.8945 35.5601 39.6702C35.9345 40.2821 36.3942 40.8184 36.9264 41.2638C37.0257 41.3475 37.1308 41.4302 37.2477 41.5171C37.4769 41.6829 37.7134 41.8319 37.9524 41.9607C38.0253 42.0001 38.0992 42.037 38.1734 42.074C40.0209 42.9727 42.2248 42.9116 44.3881 41.9068C46.5416 40.9066 48.4238 39.0777 49.6954 36.7518L35.8557 29.288Z" fill="black"/>
<path d="M44.4881 33.8547C42.0198 36.4279 39.4516 38.8795 36.8763 41.3238C36.3331 40.8691 35.8687 40.3243 35.4937 39.7111C37.8354 37.3932 40.2611 35.1753 42.5703 32.8203L44.4881 33.8547Z" fill="white"/>
<path d="M36.8793 41.4286L36.8259 41.3839C36.2807 40.9275 35.8099 40.3785 35.4267 39.7521L35.3945 39.6993L35.4384 39.6558C36.4241 38.6803 37.4409 37.7066 38.4243 36.765C39.7777 35.4692 41.1772 34.1295 42.5142 32.7661L42.5554 32.724L44.6154 33.8347L44.5443 33.9088C42.1204 36.4357 39.6617 38.7878 36.93 41.3807L36.8793 41.4286ZM35.5927 39.723C35.9482 40.2928 36.3785 40.7955 36.8731 41.2191C39.5566 38.6718 41.9768 36.3554 44.3604 33.8747L42.5848 32.9172C41.2586 34.2679 39.873 35.5944 38.5326 36.8778C37.5642 37.8047 36.5634 38.7629 35.5927 39.723Z" fill="black"/>
<path d="M45.7504 34.5354C43.2613 37.1266 40.6675 39.59 38.1488 42.1492C38.0706 42.1103 37.9924 42.0712 37.9155 42.0298C37.6657 41.8951 37.4296 41.7451 37.2036 41.5811C39.2374 39.6502 41.2718 37.713 43.2513 35.7141C43.7927 35.165 44.33 34.6137 44.862 34.0565L45.7504 34.5354Z" fill="white"/>
<path d="M38.1646 42.2445L38.1138 42.2192C38.028 42.1763 37.9525 42.1385 37.8782 42.0984C37.6335 41.9663 37.3908 41.8137 37.1575 41.6444L37.0815 41.5894L37.1497 41.5247C39.3236 39.4607 41.2791 37.5949 43.1958 35.6593C43.7871 35.0597 44.3135 34.5176 44.8056 34.0026L44.8467 33.9596L45.8782 34.5159L45.8069 34.5901C44.3715 36.0843 42.877 37.5602 41.4317 38.9875C40.3696 40.0363 39.2713 41.1206 38.2048 42.2045L38.1646 42.2445ZM37.3258 41.5727C37.5297 41.7162 37.74 41.8466 37.9524 41.9609C38.0119 41.9931 38.0723 42.0235 38.1327 42.054C39.1877 40.9828 40.2721 39.912 41.3214 38.8758C42.7423 37.4727 44.2104 36.0229 45.6225 34.5554L44.8772 34.1534C44.3965 34.6562 43.8822 35.1853 43.3067 35.7688C41.4085 37.6857 39.4731 39.5338 37.3258 41.5727Z" fill="black"/>
<path d="M32.0605 27.1528C29.3562 32.1673 24.0355 34.5446 20.1742 32.4623C20.0547 32.3978 19.9398 32.3295 19.8265 32.2585C19.517 32.0657 19.2309 31.8499 18.966 31.61C18.8613 31.518 18.7615 31.422 18.6663 31.3222C18.1683 30.8143 17.7556 30.2198 17.4303 29.5655C16.0859 26.8543 16.2244 23.0601 18.0826 19.6145L32.0605 27.1528Z" fill="black"/>
<path d="M23.2167 33.2916C22.1413 33.2916 21.0944 33.0473 20.1373 32.5312C20.0277 32.472 19.9158 32.4065 19.7852 32.3249C19.4741 32.1312 19.1809 31.9101 18.9136 31.6682C18.8086 31.5757 18.706 31.4772 18.6098 31.3763C18.1171 30.8736 17.6963 30.2759 17.3606 29.6007C15.9568 26.769 16.2071 22.9286 18.0141 19.5777L18.0511 19.5089L32.1667 27.1212L32.1296 27.19C30.078 30.9936 26.5143 33.2916 23.2167 33.2916ZM18.1147 19.7205C16.3651 23.0111 16.1283 26.7634 17.5005 29.531C17.8289 30.1915 18.2399 30.7757 18.7221 31.2675C18.8161 31.3659 18.915 31.4611 19.0176 31.5511C19.2789 31.7879 19.5647 32.0032 19.8679 32.1921C19.9955 32.272 20.1048 32.3359 20.2113 32.3934C24.0101 34.4421 29.2636 32.1054 31.9544 27.1842L18.1147 19.7205Z" fill="black"/>
<path d="M26.1601 23.9705C23.7302 26.5031 21.2035 28.9186 18.6667 31.3222C18.1687 30.8143 17.756 30.2198 17.4307 29.5655C19.6908 27.3425 22.0196 25.202 24.2423 22.9362L26.1601 23.9705Z" fill="white"/>
<path d="M18.6646 31.4317L18.6107 31.3767C18.1172 30.8733 17.6964 30.2755 17.3608 29.6003L17.3354 29.5496L17.3759 29.5099C18.2688 28.6318 19.1872 27.7522 20.0752 26.9017C21.4356 25.5989 22.8423 24.2518 24.1865 22.8815L24.2277 22.8396L26.2876 23.9505L26.2165 24.0246C23.7627 26.582 21.1678 29.0601 18.7204 31.3789L18.6646 31.4317ZM17.5259 29.5814C17.8378 30.1969 18.2219 30.745 18.6687 31.2123C21.0748 28.9323 23.6205 26.4999 26.0322 23.9905L24.2568 23.0328C22.9234 24.3904 21.5306 25.7242 20.1833 27.0147C19.309 27.8519 18.4052 28.7173 17.5259 29.5814Z" fill="black"/>
<path d="M27.4223 24.6512C24.9346 27.2398 22.3441 29.7019 19.8268 32.2585C19.5173 32.0657 19.2312 31.8499 18.9663 31.61C20.9705 29.7085 22.971 27.7983 24.923 25.8297C25.4645 25.2806 26.0017 24.7293 26.5338 24.1719L27.4223 24.6512Z" fill="white"/>
<path d="M19.8387 32.3579L19.7855 32.3249C19.4744 32.131 19.1813 31.9099 18.9139 31.668L18.8516 31.6114L18.9128 31.5535C20.8356 29.7291 22.8792 27.7803 24.8677 25.7749C25.4538 25.1808 25.9804 24.6388 26.4776 24.1182L26.5187 24.0752L27.5502 24.6315L27.479 24.7057C26.0418 26.2012 24.5459 27.6786 23.0991 29.1075C22.0407 30.1527 20.9463 31.2337 19.8829 32.3138L19.8387 32.3579ZM19.0817 31.6082C19.3096 31.8085 19.5558 31.9935 19.8152 32.1588C20.8656 31.0931 21.9448 30.0271 22.9891 28.9958C24.4112 27.5914 25.8809 26.1399 27.2949 24.671L26.5495 24.269C26.064 24.777 25.5496 25.3061 24.9789 25.8847C23.0097 27.8704 20.9875 29.8 19.0817 31.6082Z" fill="black"/>
<path d="M30.0583 32.9726C29.5054 33.7132 29.7063 34.7983 30.5072 35.3963C31.308 35.9943 32.4055 35.8787 32.9585 35.1381C33.5113 34.3976 33.3104 33.3125 32.5095 32.7145C31.7087 32.1166 30.6113 32.2321 30.0583 32.9726Z" fill="#FFD200"/>
<path d="M31.6384 35.8562C31.2345 35.8562 30.8184 35.7261 30.4604 35.4588C30.0572 35.1578 29.7866 34.7293 29.6981 34.2521C29.6094 33.7727 29.715 33.3016 29.9956 32.9259C30.2761 32.5501 30.6977 32.3151 31.1828 32.264C31.664 32.2132 32.153 32.351 32.5562 32.652C33.3903 33.2747 33.5987 34.411 33.021 35.1848C32.6912 35.6264 32.1755 35.8562 31.6384 35.8562ZM31.3795 32.4099C31.3193 32.4099 31.2592 32.4131 31.1992 32.4195C30.758 32.4659 30.3752 32.6789 30.121 33.0194C29.8667 33.36 29.7712 33.7877 29.8519 34.2237C29.9331 34.6622 30.1824 35.0562 30.5538 35.3338C31.3189 35.9048 32.3696 35.7961 32.8959 35.0916C33.422 34.3867 33.2278 33.3486 32.4629 32.7772C32.1416 32.5375 31.7627 32.4099 31.3795 32.4099Z" fill="black"/>
<path d="M31.7415 32.9656C32.1331 33.5778 31.1823 34.1875 30.7899 33.5742C30.3985 32.9618 31.3493 32.3523 31.7415 32.9656Z" fill="white"/>
<path d="M29.0943 0.00119679L27.5127 0.449648L29.8163 8.57388L31.3979 8.12543L29.0943 0.00119679Z" fill="#009CF7"/>
<path d="M9.76423 12.1428L8.80811 13.4791L15.1291 18.0017L16.0852 16.6653L9.76423 12.1428Z" fill="#009CF7"/>
<path d="M18.5613 3.95223L17.1387 4.77516L21.6783 12.6231L23.1009 11.8002L18.5613 3.95223Z" fill="#009CF7"/>
</svg>
