<svg width="81" height="78" viewBox="0 0 81 78" fill="none" xmlns="http://www.w3.org/2000/svg">
<path d="M66.8088 77.7131H12.8999C12.8999 77.7131 18.6197 67.8449 27.2438 69.0805C35.8677 70.3161 35.0055 74.0447 41.764 72.828C46.5904 71.9591 45.4352 70.3942 51.108 68.3725C59.0827 65.5305 66.8088 77.7131 66.8088 77.7131Z" fill="#F4F1E3"/>
<path d="M73.2864 17.9507C73.2358 17.9507 73.186 17.9273 73.1536 17.8834C73.1002 17.8103 73.1161 17.7073 73.1894 17.654C73.2971 17.5668 73.9875 16.8515 74.3107 16.4718C73.9303 16.5245 73.2271 16.6581 72.5872 16.7948C72.4978 16.8112 72.4111 16.757 72.3924 16.6684C72.3733 16.5795 72.4299 16.4923 72.5186 16.4734C74.7083 16.0057 74.7355 16.0934 74.7844 16.2521C74.8683 16.5221 73.3989 17.9078 73.3831 17.919C73.3539 17.9406 73.3199 17.9507 73.2864 17.9507Z" fill="#241726"/>
<path d="M70.7534 17.9929C70.7534 17.9929 70.9124 15.4336 72.2478 15.8989C74.0974 16.5434 74.9481 21.3118 71.456 22.3468C67.9642 23.3818 66.7056 20.5098 66.7056 20.5098L68.5813 20.0795C68.5813 20.0795 67.2387 18.8659 67.3657 17.8722C67.4928 16.8784 68.5418 17.7542 68.5418 17.7542C68.5418 17.7542 67.3165 15.4625 68.3351 15.3951C69.3535 15.3279 70.7534 17.9929 70.7534 17.9929Z" fill="#B1739A"/>
<path d="M72.3287 17.6932C71.9717 17.6932 71.6248 17.1704 71.5251 17.0072C71.4777 16.9295 71.5023 16.8286 71.5798 16.7814C71.6568 16.7339 71.7581 16.7582 71.8054 16.8359C71.9427 17.0604 72.1581 17.3042 72.2837 17.3551C72.2852 17.2186 72.1918 16.8817 72.0646 16.5818C72.0293 16.4984 72.0684 16.402 72.1517 16.3667C72.2352 16.3314 72.3315 16.37 72.367 16.4536C72.5007 16.7689 72.7035 17.3329 72.559 17.5684C72.5137 17.6425 72.4406 17.6864 72.3531 17.6925C72.3449 17.6932 72.3368 17.6932 72.3287 17.6932Z" fill="#241726"/>
<path d="M69.1746 20.0711C69.1377 20.0711 69.1005 20.0586 69.0699 20.0333C68.9696 19.9498 68.0933 19.2026 68.1566 18.5887C68.1777 18.3858 68.2952 18.3103 68.3633 18.2834C68.5642 18.2042 68.8541 18.3434 69.0981 18.5067C68.9861 17.8778 69.0444 17.5223 69.2731 17.4483C69.3705 17.4162 69.6667 17.3212 70.7533 19.0134C70.8022 19.0898 70.78 19.1914 70.7038 19.2404C70.6272 19.2895 70.5258 19.267 70.4769 19.1911C70.0828 18.5772 69.5647 17.895 69.3685 17.7789C69.3419 17.9004 69.3949 18.3953 69.513 18.8703C69.5302 18.9395 69.5005 19.0123 69.4394 19.0497C69.3783 19.0872 69.3003 19.0811 69.246 19.0339C68.9524 18.7789 68.5892 18.5618 68.4886 18.5878C68.4892 18.5908 68.4858 18.6022 68.4836 18.6228C68.4491 18.9547 68.9538 19.5092 69.28 19.7806C69.3496 19.8386 69.3592 19.9423 69.3011 20.0118C69.2685 20.0509 69.2217 20.0711 69.1746 20.0711Z" fill="#241726"/>
<path d="M70.7106 21.7547C70.2094 21.7547 69.8402 21.6565 69.8106 21.6486C69.7233 21.6245 69.6719 21.5343 69.6958 21.4468C69.7197 21.3597 69.8099 21.3089 69.8974 21.3317C69.9102 21.3356 71.1864 21.6717 72.1656 21.0347C72.755 20.6511 73.1253 19.9895 73.2664 19.0683C73.2799 18.9784 73.3617 18.9165 73.4536 18.9306C73.5433 18.9443 73.6049 19.0281 73.5911 19.1176C73.4352 20.1368 73.0152 20.8748 72.3425 21.3114C71.8003 21.6633 71.1941 21.7547 70.7106 21.7547Z" fill="#241726"/>
<path d="M1.99952 39.4582C1.96671 39.4582 1.93342 39.4482 1.90467 39.4272C1.88889 39.4156 0.419987 38.0289 0.503424 37.7597C0.554674 37.5967 0.579987 37.5147 2.76936 37.9812C2.85811 38.0001 2.91452 38.0873 2.89561 38.1762C2.87671 38.2648 2.78936 38.32 2.70077 38.3026C2.06092 38.1661 1.35796 38.0323 0.977331 37.9797C1.30061 38.3593 1.99139 39.0753 2.10108 39.1637C2.1703 39.2198 2.18421 39.3225 2.12983 39.3934C2.09733 39.4358 2.04874 39.4582 1.99952 39.4582Z" fill="#241726"/>
<path d="M4.53434 39.5007C4.53434 39.5007 4.37528 36.9414 3.03996 37.4067C1.19028 38.0512 0.339651 42.8197 3.83168 43.8547C7.32356 44.8897 8.58215 42.0176 8.58215 42.0176L6.70653 41.5873C6.70653 41.5873 8.04918 40.3737 7.92215 39.38C7.79512 38.3864 6.74606 39.262 6.74606 39.262C6.74606 39.262 7.97137 36.9703 6.95278 36.9029C5.93418 36.8357 4.53434 39.5007 4.53434 39.5007Z" fill="#B1739A"/>
<path d="M2.95881 39.2014C2.95084 39.2014 2.94256 39.2014 2.93459 39.2007C2.84709 39.1947 2.77397 39.1507 2.7285 39.0767C2.58397 38.8412 2.78694 38.2772 2.92053 37.9615C2.95615 37.8778 3.05256 37.839 3.13584 37.8747C3.21928 37.91 3.25818 38.0062 3.22287 38.0898C3.09568 38.39 3.00225 38.7268 3.00381 38.8634C3.12975 38.8125 3.34506 38.5687 3.48209 38.3439C3.52959 38.2662 3.63084 38.2422 3.70772 38.2893C3.78522 38.3365 3.80975 38.4375 3.7624 38.5151C3.66303 38.6782 3.31569 39.2014 2.95881 39.2014Z" fill="#241726"/>
<path d="M6.11351 41.5789C6.06632 41.5789 6.01961 41.5587 5.98711 41.5195C5.92914 41.45 5.93867 41.3462 6.00835 41.2883C6.3346 41.0168 6.83898 40.4625 6.80461 40.1304C6.80148 40.1 6.79492 40.0897 6.79492 40.0897C6.70945 40.065 6.34023 40.2831 6.0421 40.5415C5.98773 40.5884 5.90929 40.5948 5.84867 40.5573C5.78757 40.5201 5.75789 40.4473 5.77507 40.3776C5.88679 39.9279 5.94039 39.4608 5.90382 39.2968C5.69695 39.4376 5.19523 40.1009 4.81117 40.699C4.76195 40.775 4.66039 40.7975 4.58429 40.7484C4.50804 40.6993 4.48586 40.5976 4.53476 40.5214C5.62179 38.8279 5.9171 38.9239 6.01492 38.9562C6.24367 39.0303 6.3021 39.3856 6.18992 40.0143C6.43429 39.8514 6.72461 39.7115 6.92492 39.7911C6.99289 39.8179 7.11023 39.8934 7.13148 40.0964C7.19476 40.7103 6.31867 41.4575 6.21836 41.5409C6.18773 41.5664 6.15039 41.5789 6.11351 41.5789Z" fill="#241726"/>
<path d="M4.57706 43.2623C4.09378 43.2623 3.48753 43.1709 2.94549 42.819C2.27284 42.3825 1.85268 41.6445 1.69674 40.6253C1.68299 40.5357 1.74456 40.4521 1.83424 40.4382C1.92471 40.4242 2.00768 40.4861 2.02143 40.5759C2.16253 41.4973 2.53284 42.159 3.12237 42.5423C4.10128 43.1792 5.37799 42.8428 5.39065 42.8393C5.47831 42.8162 5.56846 42.8673 5.59221 42.9545C5.61612 43.042 5.56487 43.1322 5.47737 43.1562C5.44784 43.1642 5.07846 43.2623 4.57706 43.2623Z" fill="#241726"/>
<path d="M10.0083 16.7529C10.0083 16.7529 11.0185 13.7563 11.4518 14.0659C11.8852 14.3752 11.7763 14.8956 11.7763 14.8956C11.7763 14.8956 13.0365 13.2674 13.7196 13.6656C14.4026 14.0637 13.7354 14.8718 13.7354 14.8718C13.7354 14.8718 15.8502 13.3713 16.1838 14.1574C16.5174 14.9435 14.6105 16.5495 14.6105 16.5495C14.6105 16.5495 15.711 15.8684 15.9394 16.791C16.1679 17.7137 14.3204 17.9363 14.2055 17.9357C14.0907 17.9352 14.8091 17.9032 14.5937 18.5143C14.3782 19.1252 8.56491 19.4401 10.0083 16.7529Z" fill="#51AEA5"/>
<path d="M7.34053 20.0488C7.34053 20.0488 4.50944 21.4576 4.421 20.9324C4.33256 20.4073 4.77694 20.1157 4.77694 20.1157C4.77694 20.1157 2.73491 20.3788 2.53225 19.6146C2.32959 18.8504 3.37272 18.7493 3.37272 18.7493C3.37272 18.7493 0.815687 18.3187 1.13444 17.5263C1.45319 16.7341 3.93756 16.9434 3.93756 16.9434C3.93756 16.9434 2.67741 16.6487 3.16709 15.834C3.65678 15.0193 5.12225 16.1662 5.20319 16.2476C5.28412 16.329 4.75272 15.8443 5.33678 15.5638C5.921 15.2834 10.2599 19.1652 7.34053 20.0488Z" fill="#51AEA5"/>
<path d="M10.7281 19.5759C10.7281 19.5759 13.3648 21.3213 12.9545 21.6609C12.5442 22.0002 12.0694 21.7615 12.0694 21.7615C12.0694 21.7615 13.3194 23.3974 12.7594 23.9554C12.1992 24.5134 11.5895 23.661 11.5895 23.661C11.5895 23.661 12.4967 26.0901 11.6514 26.2109C10.8061 26.3315 9.74342 24.0762 9.74342 24.0762C9.74342 24.0762 10.1192 25.3146 9.16873 25.2985C8.21826 25.2824 8.47748 23.4398 8.50748 23.3288C8.53748 23.2181 8.38389 23.9206 7.84858 23.5554C7.31326 23.1902 8.50155 17.491 10.7281 19.5759Z" fill="#51AEA5"/>
<path d="M11.4415 17.7079C11.1347 17.6437 10.8302 17.659 10.5477 17.7376C10.6722 16.7666 10.0322 15.8477 9.05771 15.6438C8.03349 15.4295 7.02927 16.0862 6.81505 17.1104C6.6863 17.726 6.87365 18.3332 7.2649 18.7671C6.5824 18.9377 6.02146 19.4812 5.86771 20.216C5.65333 21.2402 6.31005 22.2445 7.33427 22.4587C8.35865 22.6731 9.36271 22.0163 9.57693 20.9921C9.59146 20.9229 9.60115 20.8538 9.60787 20.7851C9.87115 21.0968 10.2351 21.3271 10.6652 21.4173C11.6896 21.6316 12.6936 20.9749 12.9079 19.9507C13.1224 18.9263 12.4658 17.9223 11.4415 17.7079ZM9.17552 19.3234C9.17302 19.3427 9.16974 19.3621 9.16802 19.3815C9.15474 19.3659 9.14099 19.3506 9.1274 19.3354C9.14333 19.3313 9.15958 19.3279 9.17552 19.3234Z" fill="#D45A41"/>
<path d="M6.74225 18.8184C6.71037 18.8184 6.67803 18.8091 6.64975 18.7898C5.51178 18.0124 3.37787 18.1082 3.35631 18.1079C3.26303 18.1179 3.1885 18.0424 3.18428 17.9521C3.1799 17.8616 3.24975 17.7846 3.34037 17.7802C3.43209 17.7754 5.60537 17.6788 6.83521 18.5185C6.91006 18.5698 6.92928 18.6718 6.87818 18.747C6.84615 18.7934 6.79459 18.8184 6.74225 18.8184Z" fill="#241726"/>
<path d="M11.4413 17.8721C11.3643 17.8721 11.2956 17.8176 11.2804 17.7393C11.2631 17.6501 11.3212 17.5638 11.4101 17.5465C12.109 17.4106 13.3192 15.8804 13.7267 15.3021C13.7788 15.2284 13.8809 15.2101 13.9556 15.2623C14.0296 15.3145 14.0474 15.4171 13.9952 15.4912C13.8376 15.7151 12.4276 17.6831 11.4731 17.869C11.4623 17.8712 11.4518 17.8721 11.4413 17.8721Z" fill="#241726"/>
<path d="M10.5032 24.2849C10.4136 24.2849 10.3404 24.2131 10.339 24.1232C10.3294 23.5513 10.1915 22.0004 9.67349 21.6943C9.59537 21.6481 9.56959 21.5474 9.61552 21.4695C9.66177 21.3912 9.76224 21.3659 9.84052 21.4113C10.6086 21.8653 10.6636 23.8887 10.6674 24.1179C10.6688 24.2084 10.5965 24.2831 10.5058 24.2846C10.5049 24.2849 10.504 24.2849 10.5032 24.2849Z" fill="#241726"/>
<path d="M10.5811 17.7326C10.4961 17.7012 10.4018 17.7445 10.37 17.8298C10.3662 17.8398 9.98075 18.8548 9.16716 19.0132C9.13888 19.0188 9.11544 19.0329 9.09497 19.0502C9.05388 19.0216 9.01372 18.9924 8.96778 18.9665C8.32685 18.604 7.78388 18.4835 7.35372 18.6106C6.98122 18.7202 6.83903 18.974 6.82388 19.0024C6.78216 19.082 6.81263 19.1791 6.89153 19.2218C6.97013 19.2651 7.0695 19.2352 7.11372 19.157C7.11763 19.1502 7.20935 18.9915 7.45731 18.9221C7.69169 18.8579 8.11544 18.8612 8.80606 19.2524C9.6795 19.7463 9.42794 20.9063 9.41685 20.9554C9.39685 21.0435 9.452 21.1318 9.54028 21.152C9.55263 21.1545 9.56497 21.1562 9.577 21.1562C9.65185 21.1562 9.71935 21.1049 9.73685 21.0288C9.74825 20.9791 9.9656 19.9782 9.37325 19.2982C10.2675 19.0282 10.6612 17.9895 10.6783 17.9431C10.7095 17.8582 10.6661 17.764 10.5811 17.7326Z" fill="#241726"/>
<path d="M9.90574 17.256C9.83668 17.256 9.77231 17.2121 9.74965 17.1427C9.53137 16.477 8.76403 16.5331 8.75684 16.5327C8.66481 16.5413 8.58715 16.4731 8.57965 16.3826C8.57231 16.2921 8.63949 16.2129 8.72996 16.2056C9.08637 16.1729 9.82324 16.3131 10.0618 17.0407C10.0901 17.1267 10.0431 17.2193 9.95699 17.2479C9.93996 17.2534 9.92262 17.256 9.90574 17.256Z" fill="#FBFCFF"/>
<path d="M12.3853 19.682C12.3134 19.682 12.2473 19.6342 12.2272 19.5617C12.0907 19.069 11.3734 18.7676 11.3662 18.7643C11.2825 18.7299 11.2426 18.6338 11.277 18.5501C11.3115 18.4663 11.4073 18.4267 11.4911 18.4606C11.5265 18.4752 12.364 18.8256 12.5437 19.4737C12.5679 19.5612 12.5167 19.6517 12.4292 19.6757C12.4147 19.6799 12.3998 19.682 12.3853 19.682Z" fill="#FBFCFF"/>
<path d="M8.92562 20.6438C8.83578 20.6438 8.7625 20.5716 8.7614 20.4815C8.76015 20.3724 8.72094 20.2831 8.64203 20.2082C8.39062 19.9702 7.80891 19.9379 7.60484 19.9487C7.51781 19.952 7.43781 19.8823 7.43375 19.7915C7.42984 19.701 7.50015 19.6245 7.59062 19.6202C7.62656 19.6202 8.46281 19.5866 8.8675 19.9691C9.01266 20.1065 9.08734 20.2774 9.09 20.4774C9.09109 20.5679 9.01844 20.6423 8.92781 20.6435C8.92703 20.6438 8.92625 20.6438 8.92562 20.6438Z" fill="#FBFCFF"/>
<path d="M70.9014 55.2252C70.9014 55.2252 68.1464 53.673 68.5312 53.305C68.9161 52.937 69.4069 53.1413 69.4069 53.1413C69.4069 53.1413 68.0428 51.5991 68.5615 51.0024C69.0801 50.4058 69.7495 51.2122 69.7495 51.2122C69.7495 51.2122 68.6706 48.8544 69.5051 48.6735C70.3397 48.4925 71.5611 50.666 71.5611 50.666C71.5611 50.666 71.0976 49.4577 72.0467 49.4056C72.9958 49.3536 72.8694 51.2102 72.8473 51.3228C72.8253 51.4355 72.9283 50.7238 73.4883 51.0495C74.0484 51.3755 73.2715 57.1452 70.9014 55.2252Z" fill="#51AEA5"/>
<path d="M73.6407 58.462C73.6407 58.462 74.4957 61.5064 73.9633 61.4952C73.431 61.4839 73.2276 60.9928 73.2276 60.9928C73.2276 60.9928 73.1046 63.048 72.316 63.1044C71.5274 63.1606 71.6229 62.117 71.6229 62.117C71.6229 62.117 70.7221 64.5486 70.0033 64.0874C69.2846 63.6263 69.9543 61.2247 69.9543 61.2247C69.9543 61.2247 69.4294 62.4077 68.7205 61.7744C68.0116 61.1411 69.4121 59.9156 69.5073 59.8514C69.6024 59.787 69.0269 60.2186 68.8605 59.5924C68.694 58.9661 73.318 55.4288 73.6407 58.462Z" fill="#51AEA5"/>
<path d="M73.8089 55.046C73.8089 55.046 76.0162 52.7817 76.2731 53.2481C76.53 53.7145 76.2065 54.1366 76.2065 54.1366C76.2065 54.1366 78.0473 53.2142 78.4907 53.8686C78.9342 54.5231 77.9829 54.963 77.9829 54.963C77.9829 54.963 80.5387 54.5255 80.4993 55.3786C80.46 56.2317 78.0457 56.8541 78.0457 56.8541C78.0457 56.8541 79.3324 56.7163 79.1392 57.6469C78.9457 58.5775 77.184 57.9788 77.0807 57.9286C76.9775 57.8784 77.639 58.1606 77.1803 58.6181C76.7217 59.0758 71.3446 56.8438 73.8089 55.046Z" fill="#51AEA5"/>
<path d="M74.9852 56.4411C74.9198 56.4139 74.8539 56.3914 74.7875 56.3721C75.1428 56.1717 75.4372 55.8572 75.6061 55.4513C76.008 54.485 75.5505 53.376 74.5844 52.9741C73.6181 52.5722 72.5091 53.0297 72.1072 53.9958C71.9869 54.2852 71.945 54.5872 71.9694 54.8794C71.0388 54.5756 70.0164 55.0327 69.6341 55.952C69.2322 56.9183 69.6897 58.0274 70.6558 58.4292C71.2366 58.6708 71.868 58.6 72.3673 58.2967C72.4075 58.9991 72.8366 59.6517 73.5297 59.94C74.4959 60.3419 75.605 59.8844 76.0069 58.9181C76.4089 57.952 75.9514 56.843 74.9852 56.4411ZM73.2708 56.5239C73.2894 56.53 73.3078 56.5367 73.3264 56.5422C73.3086 56.5522 73.2909 56.5628 73.2734 56.5736C73.2727 56.557 73.2722 56.5403 73.2708 56.5239Z" fill="#D45A41"/>
<path d="M70.6639 62.0994C70.6564 62.0994 70.6486 62.0988 70.6409 62.0978C70.5511 62.0853 70.4886 62.0022 70.5011 61.9125C70.5138 61.8214 70.8244 59.6685 71.8795 58.6171C71.9439 58.5531 72.0478 58.5531 72.1117 58.6177C72.1759 58.6817 72.1756 58.7858 72.1114 58.8499C71.1349 59.8227 70.8294 61.9369 70.8263 61.958C70.8149 62.04 70.7445 62.0994 70.6639 62.0994Z" fill="#241726"/>
<path d="M72.1071 54.1602C72.0166 54.1602 71.9432 54.0871 71.9429 53.9966C71.9398 53.2842 70.6627 51.8096 70.1707 51.3016C70.1077 51.2364 70.1093 51.1325 70.1746 51.0694C70.2401 51.0066 70.344 51.0078 70.4068 51.0733C70.5971 51.2699 72.2671 53.0227 72.2713 53.9955C72.2716 54.0863 72.1985 54.16 72.1077 54.1603L72.1071 54.1602Z" fill="#241726"/>
<path d="M75.5699 56.533C75.5314 56.533 75.4926 56.5196 75.4615 56.4919C75.3934 56.4322 75.3868 56.3283 75.4467 56.2603C76.0362 55.5906 78.0346 55.9149 78.2603 55.9541C78.3496 55.9694 78.4093 56.0544 78.394 56.1436C78.3785 56.2331 78.2942 56.2956 78.2042 56.2774C77.6409 56.1802 76.0906 56.0256 75.6934 56.4772C75.6607 56.5141 75.6156 56.533 75.5699 56.533Z" fill="#241726"/>
<path d="M75.0514 56.2908C75.0047 56.2702 74.0617 55.8696 73.2833 56.3247C73.1855 55.396 72.2383 54.8152 72.196 54.7896C72.118 54.7433 72.0175 54.7674 71.9708 54.8456C71.9241 54.9233 71.9491 55.0242 72.0267 55.0711C72.0361 55.0766 72.9613 55.6449 72.9649 56.4736C72.965 56.5025 72.9746 56.5281 72.9877 56.5517C72.9519 56.5869 72.9156 56.6208 72.8814 56.6613C72.4052 57.2235 72.1861 57.7344 72.23 58.1802C72.2681 58.5666 72.491 58.7536 72.5161 58.7738C72.5461 58.7975 72.5817 58.8091 72.617 58.8091C72.6647 58.8091 72.7119 58.7881 72.7444 58.7485C72.8013 58.6789 72.791 58.576 72.7222 58.5181C72.7163 58.513 72.5774 58.3931 72.556 58.1364C72.5356 57.8946 72.6191 57.4789 73.1319 56.8735C73.7805 56.1072 74.8735 56.5713 74.9194 56.5916C75.0035 56.6281 75.0995 56.5897 75.1355 56.5069C75.172 56.4239 75.1344 56.3274 75.0514 56.2908Z" fill="#241726"/>
<path d="M70.2884 56.5605C70.2826 56.5605 70.2767 56.5602 70.2709 56.5596C70.1806 56.5499 70.1154 56.4691 70.1249 56.3789C70.1628 56.0233 70.4349 55.325 71.1939 55.2266C71.2835 55.2138 71.3662 55.2783 71.3778 55.3683C71.3895 55.4585 71.326 55.5405 71.2362 55.5524C70.5415 55.6425 70.4521 56.4058 70.4514 56.4135C70.4425 56.498 70.3712 56.5605 70.2884 56.5605Z" fill="#FBFCFF"/>
<path d="M72.9937 54.3414C72.9629 54.3414 72.9318 54.3328 72.904 54.3145C72.8282 54.2652 72.8068 54.1635 72.8562 54.0878C72.8771 54.0555 73.3777 53.2981 74.0482 53.243C74.1396 53.236 74.2179 53.3027 74.2254 53.3931C74.2327 53.4836 74.1655 53.5628 74.0751 53.5702C73.5655 53.6122 73.1355 54.2606 73.1312 54.267C73.0999 54.3152 73.0473 54.3414 72.9937 54.3414Z" fill="#FBFCFF"/>
<path d="M73.4295 58.3239C73.4217 58.3239 73.4136 58.3233 73.4056 58.322C73.3159 58.3092 73.2538 58.2258 73.2669 58.1359C73.2719 58.1009 73.3969 57.2725 73.8481 56.9467C74.0099 56.8303 74.1917 56.7883 74.3886 56.8236C74.478 56.8394 74.5374 56.9247 74.5216 57.0138C74.5056 57.1033 74.4219 57.1613 74.3313 57.1469C74.2231 57.1277 74.1286 57.1494 74.0408 57.213C73.7597 57.4153 73.6214 57.982 73.5917 58.1834C73.5799 58.2652 73.5097 58.3239 73.4295 58.3239Z" fill="#FBFCFF"/>
<path d="M27.3509 71.1555C27.3056 71.1555 27.2604 71.1369 27.2281 71.1003C27.2078 71.0775 26.7315 70.5622 25.9845 70.9162C25.9028 70.9544 25.8048 70.9202 25.7659 70.838C25.727 70.7562 25.7619 70.6581 25.844 70.6192C26.6251 70.2497 27.2519 70.6298 27.4744 70.8828C27.5344 70.9511 27.5276 71.0547 27.4595 71.1147C27.4279 71.142 27.3894 71.1555 27.3509 71.1555Z" fill="#241726"/>
<path d="M26.0555 72.1228C26.0102 72.1228 25.965 72.1042 25.9327 72.0677C25.9124 72.0445 25.4363 71.5289 24.6891 71.8836C24.6075 71.9217 24.5091 71.8875 24.4705 71.8053C24.4316 71.7236 24.4664 71.6255 24.5486 71.5866C25.3296 71.217 25.9564 71.5972 26.1788 71.8502C26.2388 71.9184 26.2321 72.022 26.1639 72.082C26.1327 72.1094 26.0939 72.1228 26.0555 72.1228Z" fill="#241726"/>
<path d="M23.8783 71.9375C23.833 71.9375 23.7878 71.9189 23.7555 71.8823C23.7353 71.8595 23.2603 71.3431 22.5119 71.698C22.4302 71.7364 22.3322 71.7016 22.2931 71.6197C22.2544 71.538 22.2894 71.4398 22.3714 71.4009C23.1522 71.0308 23.7794 71.4119 24.0017 71.6648C24.0617 71.7331 24.055 71.8367 23.9869 71.8967C23.9555 71.9241 23.9167 71.9375 23.8783 71.9375Z" fill="#241726"/>
<path d="M21.6854 71.0545C21.6373 71.0545 21.5896 71.0337 21.5573 70.9933C21.5005 70.9226 21.5115 70.8191 21.5823 70.7623C22.2649 70.2133 22.9518 70.4412 23.2193 70.6389C23.2924 70.6928 23.308 70.7955 23.2541 70.8686C23.2007 70.9411 23.0983 70.9572 23.0251 70.9039C23.0001 70.8856 22.4387 70.4947 21.7882 71.0184C21.7579 71.0426 21.7215 71.0545 21.6854 71.0545Z" fill="#241726"/>
<path d="M24.057 70.8742C24.0064 70.8742 23.9564 70.8508 23.9242 70.8069C23.8707 70.7337 23.8867 70.6308 23.96 70.5775C24.665 70.0617 25.3423 70.3216 25.6021 70.5309C25.6728 70.588 25.6837 70.6912 25.6268 70.7619C25.5704 70.8323 25.4671 70.8433 25.3967 70.7872C25.3732 70.7689 24.8265 70.3509 24.1535 70.8423C24.1245 70.8641 24.0906 70.8742 24.057 70.8742Z" fill="#241726"/>
<path d="M21.1981 72.8066C21.1475 72.8066 21.0976 72.7831 21.0653 72.7392C21.0118 72.6661 21.0278 72.5631 21.1011 72.5098C21.8062 71.9941 22.4834 72.2539 22.7433 72.4633C22.8139 72.5203 22.8248 72.6236 22.7679 72.6942C22.7115 72.7648 22.6086 72.7756 22.5378 72.7195C22.5147 72.7019 21.9676 72.283 21.2947 72.7747C21.2656 72.7964 21.2317 72.8066 21.1981 72.8066Z" fill="#241726"/>
<path d="M19.8049 72.0503C19.7629 72.0503 19.7207 72.0342 19.6886 72.0022C19.6246 71.938 19.6246 71.8337 19.6889 71.77C20.3127 71.1469 21.0168 71.2995 21.3011 71.4669C21.3794 71.5126 21.4054 71.6134 21.3593 71.6917C21.3136 71.7694 21.2132 71.7959 21.135 71.7501C21.1074 71.7341 20.5157 71.4092 19.9208 72.0022C19.8889 72.0344 19.8469 72.0503 19.8049 72.0503Z" fill="#241726"/>
<path d="M57.9032 70.5558C57.8578 70.5558 57.8127 70.5373 57.7803 70.5007C57.7602 70.4779 57.2843 69.9619 56.5368 70.3166C56.4547 70.3548 56.3569 70.3205 56.3182 70.2383C56.2793 70.1566 56.3141 70.0583 56.3963 70.0196C57.1769 69.6498 57.8043 70.0302 58.0266 70.2832C58.0866 70.3515 58.0799 70.4551 58.0118 70.5151C57.9803 70.5424 57.9418 70.5558 57.9032 70.5558Z" fill="#241726"/>
<path d="M56.6078 71.5232C56.5624 71.5232 56.5173 71.5046 56.4849 71.468C56.4646 71.4452 55.9884 70.9293 55.2413 71.284C55.1596 71.3221 55.0617 71.2879 55.0228 71.2057C54.9838 71.124 55.0187 71.0257 55.1009 70.9869C55.8815 70.6174 56.5087 70.9976 56.7312 71.2505C56.7912 71.3188 56.7845 71.4224 56.7162 71.4824C56.6848 71.5096 56.6462 71.5232 56.6078 71.5232Z" fill="#241726"/>
<path d="M54.4304 71.3377C54.385 71.3377 54.3399 71.3191 54.3075 71.2826C54.2872 71.2598 53.8116 70.7438 53.0643 71.0985C52.9821 71.1366 52.8846 71.1024 52.8455 71.0202C52.8066 70.9385 52.8414 70.8402 52.9235 70.8015C53.7044 70.4319 54.3313 70.8121 54.5538 71.0651C54.6138 71.1333 54.6071 71.2369 54.5388 71.2969C54.5075 71.3243 54.4689 71.3377 54.4304 71.3377Z" fill="#241726"/>
<path d="M52.2371 70.4548C52.189 70.4548 52.1413 70.434 52.109 70.3935C52.0522 70.3229 52.0633 70.2193 52.134 70.1626C52.8162 69.6138 53.5037 69.8415 53.7712 70.0391C53.8443 70.093 53.8597 70.1957 53.806 70.2688C53.7527 70.3416 53.6499 70.3573 53.5771 70.3041C53.5518 70.2862 52.9907 69.8946 52.3399 70.4187C52.3096 70.4429 52.2732 70.4548 52.2371 70.4548Z" fill="#241726"/>
<path d="M54.6092 70.2746C54.5586 70.2746 54.5088 70.2512 54.4764 70.2073C54.423 70.1341 54.4389 70.0312 54.5122 69.9779C55.2174 69.4621 55.8944 69.7219 56.1544 69.9313C56.225 69.9883 56.2359 70.0916 56.1791 70.1623C56.1225 70.2329 56.0195 70.2437 55.9489 70.1876C55.9259 70.1699 55.3791 69.751 54.7058 70.2427C54.6767 70.2643 54.6427 70.2746 54.6092 70.2746Z" fill="#241726"/>
<path d="M51.7508 72.2069C51.7002 72.2069 51.6504 72.1835 51.618 72.1396C51.5646 72.0665 51.5805 71.9635 51.6538 71.9102C52.3588 71.3944 53.0365 71.6543 53.2958 71.8637C53.3666 71.9207 53.3776 72.024 53.3207 72.0946C53.2641 72.1649 53.1611 72.1763 53.0905 72.1199C53.0674 72.1016 52.521 71.6833 51.8474 72.1751C51.8183 72.1966 51.7843 72.2069 51.7508 72.2069Z" fill="#241726"/>
<path d="M50.3571 71.4507C50.3151 71.4507 50.2729 71.4346 50.2409 71.4026C50.1768 71.3385 50.1768 71.2341 50.2412 71.1704C50.8653 70.5466 51.5688 70.6999 51.8534 70.8673C51.9315 70.913 51.9574 71.0138 51.9115 71.0921C51.8656 71.1698 51.7649 71.1957 51.6876 71.1509C51.6624 71.1365 51.0698 70.8077 50.4731 71.4026C50.441 71.4346 50.3992 71.4507 50.3571 71.4507Z" fill="#241726"/>
<path d="M6.1701 66.4595C6.04119 66.4595 5.91182 66.4499 5.7851 66.431C5.69541 66.4178 5.63354 66.3341 5.64682 66.2445C5.66025 66.1547 5.74385 66.0935 5.83354 66.1063C6.03447 66.1358 6.24197 66.138 6.4451 66.1149C6.53541 66.1055 6.61666 66.1691 6.62697 66.2592C6.63744 66.3494 6.57275 66.4308 6.4826 66.4414C6.37885 66.4535 6.27463 66.4595 6.1701 66.4595ZM7.10182 66.2927C7.03416 66.2927 6.97057 66.2506 6.94697 66.183C6.91682 66.0974 6.96166 66.0038 7.04729 65.9736C7.23588 65.9072 7.42682 65.8188 7.6151 65.7106C7.69385 65.6658 7.79416 65.6924 7.83932 65.7713C7.88447 65.8499 7.85729 65.9502 7.77869 65.9955C7.57307 66.1135 7.36369 66.2103 7.15635 66.2835C7.13838 66.2899 7.11994 66.2927 7.10182 66.2927ZM5.1801 66.252C5.15838 66.252 5.13603 66.2475 5.11447 66.2383C4.90885 66.1485 4.7076 66.0311 4.5165 65.8891C4.44369 65.8349 4.42869 65.7322 4.4826 65.6594C4.53682 65.5863 4.63963 65.5716 4.71244 65.6253C4.88354 65.7524 5.06291 65.8575 5.24604 65.9374C5.32916 65.9736 5.36713 66.0705 5.33072 66.1535C5.30385 66.2152 5.24354 66.252 5.1801 66.252ZM8.239 65.6475C8.19057 65.6475 8.14275 65.6264 8.11025 65.5856C8.05385 65.5144 8.06572 65.4111 8.13666 65.3547C8.29885 65.2258 8.45697 65.082 8.60666 64.9275C8.66979 64.862 8.77369 64.8608 8.83885 64.9236C8.90416 64.9867 8.90572 65.0906 8.84275 65.1558C8.68307 65.3206 8.51432 65.4739 8.34104 65.6119C8.31088 65.636 8.27479 65.6475 8.239 65.6475ZM4.12635 65.4833C4.0826 65.4833 4.039 65.4659 4.0065 65.4313C3.859 65.2741 3.71479 65.0974 3.57807 64.9063C3.52525 64.8325 3.54229 64.7299 3.61604 64.6769C3.6901 64.6242 3.79244 64.6413 3.84525 64.715C3.97354 64.8947 4.10838 65.0602 4.24604 65.2067C4.30822 65.2728 4.30494 65.3767 4.23885 65.4386C4.20713 65.4685 4.16666 65.4833 4.12635 65.4833ZM9.15197 64.7067C9.11744 64.7067 9.08275 64.6958 9.05322 64.6733C8.98072 64.6188 8.9665 64.5158 9.02119 64.4433C9.15104 64.2714 9.26916 64.093 9.37182 63.9131C9.4165 63.8345 9.51682 63.8074 9.59588 63.8519C9.67463 63.897 9.70197 63.9972 9.65697 64.0761C9.54729 64.2681 9.4215 64.4585 9.28322 64.6416C9.25088 64.6844 9.20166 64.7067 9.15197 64.7067ZM3.35979 64.421C3.30229 64.421 3.24619 64.3905 3.21619 64.3366C3.10338 64.1345 3.00775 63.9258 2.9315 63.7166C2.90041 63.6313 2.94432 63.5374 3.02963 63.5063C3.11479 63.4752 3.20916 63.5191 3.2401 63.6044C3.31025 63.7972 3.39885 63.9899 3.50291 64.1769C3.54713 64.2561 3.51869 64.3561 3.43947 64.4002C3.41432 64.4142 3.38682 64.421 3.35979 64.421ZM2.91588 63.1913C2.83744 63.1913 2.76822 63.1352 2.75416 63.0553C2.71729 62.8427 2.69854 62.6266 2.69854 62.4119L2.86307 62.3731L3.02713 62.3936C3.02697 62.6075 3.04416 62.8052 3.07775 62.9988C3.09338 63.0883 3.03354 63.1733 2.944 63.1886C2.93463 63.1906 2.9251 63.1913 2.91588 63.1913ZM2.92932 61.885C2.919 61.885 2.90885 61.8841 2.89838 61.8822C2.80916 61.8652 2.75088 61.7789 2.76791 61.69C2.8101 61.47 2.87197 61.2491 2.95229 61.0322C2.98385 60.9472 3.0776 60.9036 3.16338 60.9353C3.24838 60.9667 3.29182 61.0614 3.26025 61.1464C3.18635 61.346 3.12916 61.5495 3.09057 61.7516C3.07541 61.8302 3.00666 61.885 2.92932 61.885ZM3.38025 60.6574C3.35322 60.6574 3.32604 60.6506 3.30088 60.6369C3.2215 60.593 3.19275 60.4928 3.23682 60.4136C3.3451 60.2183 3.46932 60.0269 3.60619 59.8444C3.66041 59.7719 3.76369 59.7569 3.83604 59.8114C3.90869 59.866 3.92338 59.9689 3.86885 60.0414C3.74119 60.212 3.6251 60.3906 3.52432 60.5728C3.49416 60.6269 3.43791 60.6574 3.38025 60.6574ZM6.6401 60.3234C6.63682 60.3234 6.63353 60.3235 6.6301 60.3231C6.414 60.3103 6.18588 60.2753 5.95244 60.2192C5.86447 60.1981 5.8101 60.1092 5.83119 60.021C5.85229 59.9331 5.93979 59.8792 6.02947 59.8997C6.244 59.9514 6.45275 59.9835 6.64979 59.9953C6.74025 60.0008 6.80932 60.0785 6.80385 60.1689C6.79869 60.2561 6.72635 60.3234 6.6401 60.3234ZM7.29291 60.2788C7.21822 60.2788 7.15057 60.2275 7.13307 60.1514C7.11275 60.0633 7.16791 59.975 7.25619 59.9545C7.47104 59.9049 7.63166 59.816 7.72041 59.6974C7.77447 59.6245 7.8776 59.6095 7.95025 59.6639C8.02291 59.7181 8.03775 59.8211 7.98354 59.8936C7.84572 60.0783 7.62588 60.2063 7.3301 60.2747C7.3176 60.2775 7.3051 60.2788 7.29291 60.2788ZM5.36541 60.0236C5.3451 60.0236 5.32416 60.0197 5.30416 60.0117C5.09291 59.9267 4.88729 59.8277 4.69275 59.7167C4.61385 59.6719 4.5865 59.5714 4.63135 59.4925C4.67604 59.4136 4.77635 59.3864 4.85541 59.4313C5.03729 59.5349 5.22932 59.6278 5.42682 59.707C5.51104 59.7406 5.55166 59.8366 5.51791 59.9206C5.49197 59.9847 5.43025 60.0236 5.36541 60.0236ZM4.16416 59.6089C4.12291 59.6089 4.08166 59.5935 4.04963 59.5624C3.98463 59.4992 3.98322 59.3953 4.04635 59.3302C4.0565 59.3199 4.0665 59.3097 4.07666 59.2994C3.914 59.1695 3.76166 59.0288 3.6226 58.8805C3.56057 58.8144 3.56385 58.7105 3.62994 58.6486C3.6965 58.5864 3.8001 58.5895 3.86213 58.6559C4.00057 58.8034 4.15369 58.943 4.31744 59.0709C4.39338 59.0036 4.47119 58.9384 4.55057 58.8763C4.62197 58.8199 4.72525 58.8327 4.78119 58.9039C4.83729 58.9752 4.82494 59.0784 4.75354 59.1342C4.58791 59.2644 4.42916 59.4075 4.2815 59.5592C4.24963 59.5922 4.20697 59.6089 4.16416 59.6089ZM7.9351 59.3327C7.86307 59.3327 7.79697 59.2849 7.77697 59.212C7.7551 59.1335 7.72166 59.0488 7.67713 58.9606C7.62854 58.8644 7.57057 58.7785 7.50447 58.7053C7.44369 58.638 7.449 58.5344 7.51635 58.4734C7.58322 58.4131 7.68744 58.418 7.74822 58.4853C7.83385 58.5803 7.90869 58.6903 7.97025 58.8125C8.02463 58.9203 8.06604 59.0252 8.09354 59.1249C8.11775 59.212 8.0665 59.3025 7.979 59.3269C7.96447 59.3308 7.94979 59.3327 7.9351 59.3327ZM5.19557 58.8006C5.13885 58.8006 5.08369 58.7711 5.05338 58.7186C5.00791 58.6403 5.03479 58.5397 5.11322 58.4944C5.31947 58.375 5.52775 58.2766 5.73275 58.2019C5.81807 58.1714 5.91197 58.2147 5.94338 58.2997C5.97447 58.385 5.93057 58.4792 5.84541 58.5103C5.65838 58.5786 5.4676 58.6688 5.27791 58.7785C5.25166 58.7936 5.22338 58.8006 5.19557 58.8006ZM3.3365 58.4177C3.28307 58.4177 3.23072 58.3917 3.199 58.3436C3.07275 58.1514 2.96463 57.9475 2.87713 57.7377C2.84213 57.6539 2.88182 57.5578 2.96557 57.5228C3.04916 57.4891 3.14557 57.5274 3.18025 57.6113C3.25994 57.8024 3.35854 57.9881 3.47354 58.1633C3.52322 58.2389 3.50229 58.3409 3.42635 58.3906C3.39869 58.4091 3.36744 58.4177 3.3365 58.4177ZM7.07666 58.4164C7.06119 58.4164 7.04572 58.4142 7.0301 58.4097C6.85775 58.3588 6.65682 58.3433 6.444 58.3664C6.35213 58.3753 6.27275 58.3113 6.26291 58.2208C6.25307 58.1306 6.31822 58.0499 6.40838 58.0399C6.66619 58.0116 6.90932 58.0316 7.12307 58.0947C7.2101 58.1203 7.25963 58.2117 7.234 58.2986C7.21291 58.3702 7.14744 58.4164 7.07666 58.4164ZM2.83494 57.213C2.75885 57.213 2.69057 57.1597 2.67447 57.0825C2.62838 56.8625 2.60166 56.6338 2.59494 56.4025C2.59244 56.3117 2.66369 56.2361 2.75432 56.2334C2.84494 56.2302 2.92057 56.3024 2.92338 56.3928C2.92947 56.6049 2.95385 56.8142 2.99588 57.015C3.01447 57.1039 2.9576 57.1908 2.86885 57.2094C2.85744 57.212 2.84604 57.213 2.83494 57.213ZM2.76869 55.9052C2.76557 55.9052 2.7626 55.9052 2.75947 55.9049C2.66885 55.9 2.59947 55.8225 2.60463 55.732C2.61729 55.502 2.64057 55.2769 2.67369 55.063C2.68775 54.9738 2.77166 54.9125 2.86119 54.9261C2.95088 54.9402 3.01229 55.0239 2.99838 55.1138C2.96682 55.3167 2.94463 55.5311 2.93244 55.75C2.9276 55.8375 2.85525 55.9052 2.76869 55.9052ZM2.97463 54.6117C2.95979 54.6117 2.94463 54.6099 2.92979 54.6056C2.8426 54.5809 2.79182 54.4902 2.8165 54.403C2.88025 54.1772 2.95854 53.962 3.04916 53.7631C3.08682 53.6803 3.18463 53.6445 3.26666 53.6817C3.34932 53.7192 3.38572 53.8167 3.34807 53.8992C3.26432 54.0833 3.19166 54.2828 3.13244 54.4922C3.11213 54.5645 3.04619 54.6117 2.97463 54.6117ZM4.90244 53.5244C4.89635 53.5244 4.89025 53.5241 4.884 53.5234C4.6526 53.4975 4.4251 53.4439 4.20775 53.3638C4.1226 53.3327 4.07916 53.238 4.11041 53.153C4.14197 53.068 4.23697 53.0244 4.32135 53.0558C4.51385 53.1267 4.71541 53.1741 4.92057 53.1969C5.01072 53.2072 5.07557 53.2883 5.06557 53.3784C5.05604 53.4622 4.98494 53.5244 4.90244 53.5244ZM5.55729 53.5138C5.47744 53.5138 5.40744 53.4553 5.3951 53.3742C5.3815 53.2844 5.44307 53.2006 5.53275 53.1872C5.75385 53.1536 5.94963 53.0869 6.08416 52.9986C6.15979 52.9492 6.26182 52.9706 6.31135 53.0464C6.36104 53.122 6.33979 53.2241 6.26369 53.2738C6.08822 53.3883 5.85244 53.4706 5.58197 53.5117C5.57385 53.5131 5.56557 53.5138 5.55729 53.5138ZM3.52307 53.4256C3.49041 53.4256 3.45713 53.416 3.42838 53.3955C3.35432 53.3431 3.33666 53.2405 3.38916 53.1664C3.43072 53.1077 3.474 53.0506 3.51854 52.9958C3.35588 52.8775 3.20416 52.7411 3.06682 52.5894C3.00588 52.522 3.01119 52.4181 3.07838 52.3572C3.14557 52.2969 3.24947 52.3017 3.31025 52.3688C3.44057 52.5128 3.58525 52.6414 3.74072 52.7508C3.77635 52.7158 3.8126 52.6819 3.84963 52.6491C3.91713 52.5884 4.02088 52.5949 4.08135 52.6628C4.1415 52.7308 4.13525 52.8347 4.06744 52.8947C3.91854 53.0269 3.78041 53.182 3.65744 53.3563C3.62541 53.4016 3.57463 53.4256 3.52307 53.4256ZM6.33229 52.755C6.28385 52.755 6.23604 52.7338 6.20354 52.6931C6.19213 52.6788 6.17885 52.6642 6.16385 52.6499C6.05213 52.5433 5.90291 52.4619 5.73385 52.4147C5.64666 52.3903 5.59541 52.2999 5.61979 52.2127C5.64416 52.1252 5.73463 52.0738 5.82197 52.0985C6.04244 52.1597 6.23916 52.2684 6.39104 52.4128C6.41807 52.4391 6.44088 52.4638 6.46057 52.4885C6.51682 52.5597 6.5051 52.663 6.43416 52.7194C6.40416 52.7435 6.36807 52.755 6.33229 52.755ZM4.50166 52.5713C4.44072 52.5713 4.38229 52.5372 4.354 52.4789C4.31416 52.3975 4.34807 52.2994 4.42947 52.2595C4.64822 52.1527 4.87557 52.0834 5.10541 52.053C5.19713 52.0395 5.27775 52.1047 5.28963 52.1944C5.3015 52.2842 5.23822 52.3669 5.14838 52.3788C4.95369 52.4044 4.76025 52.4635 4.57354 52.5545C4.55025 52.5658 4.52572 52.5713 4.50166 52.5713ZM2.80416 52.1128C2.7476 52.1128 2.69244 52.0836 2.66197 52.0311C2.55182 51.8413 2.45463 51.6324 2.37354 51.4108C2.34229 51.3258 2.38588 51.2316 2.47104 51.2C2.55682 51.1692 2.65041 51.2125 2.68182 51.2978C2.7565 51.5014 2.84557 51.6927 2.94619 51.8661C2.99182 51.9447 2.96494 52.045 2.8865 52.0906C2.86057 52.1058 2.83213 52.1128 2.80416 52.1128ZM2.34619 50.8883C2.27057 50.8883 2.20244 50.8356 2.18588 50.7588C2.17275 50.6978 2.16041 50.6356 2.14885 50.5724C2.11885 50.4081 2.09494 50.2491 2.07713 50.0955C2.0665 50.0053 2.13119 49.9239 2.22135 49.9133C2.31369 49.9044 2.39275 49.9678 2.40338 50.0577C2.42057 50.2042 2.44307 50.3563 2.47182 50.5134C2.48275 50.5734 2.49447 50.6317 2.50697 50.6895C2.52604 50.778 2.46979 50.8656 2.38104 50.8845C2.36932 50.887 2.35775 50.8883 2.34619 50.8883ZM2.19807 49.5856C2.10807 49.5856 2.03479 49.5131 2.03385 49.423L2.03369 49.3767C2.03369 49.1595 2.04666 48.9472 2.07213 48.7463C2.08369 48.6561 2.1665 48.5933 2.25572 48.6039C2.34572 48.6155 2.40932 48.6975 2.39791 48.7874C2.374 48.9753 2.36197 49.1735 2.36197 49.3769L2.36213 49.4199C2.36307 49.5103 2.29025 49.5847 2.19963 49.5856C2.19916 49.5856 2.19854 49.5856 2.19807 49.5856ZM2.36947 48.2895C2.35385 48.2895 2.33807 48.2874 2.32244 48.2828C2.23557 48.2566 2.18619 48.1652 2.21213 48.0781C2.27916 47.8542 2.36604 47.64 2.47057 47.4419C2.51291 47.3617 2.61197 47.3313 2.69244 47.3733C2.7726 47.4156 2.80338 47.515 2.76104 47.5952C2.66635 47.7744 2.58744 47.9688 2.52666 48.1725C2.50541 48.2436 2.44025 48.2895 2.36947 48.2895ZM2.97994 47.1381C2.94291 47.1381 2.90557 47.1256 2.87494 47.1C2.80541 47.0419 2.79588 46.9383 2.85416 46.8688C3.00072 46.693 3.16744 46.5314 3.34963 46.3883C3.42104 46.3328 3.524 46.3447 3.5801 46.4161C3.63619 46.4874 3.62369 46.5906 3.55229 46.6467C3.38822 46.7753 3.23822 46.921 3.10619 47.0791C3.07385 47.118 3.02713 47.1381 2.97994 47.1381ZM4.00557 46.3302C3.94541 46.3302 3.8876 46.2972 3.85869 46.2397C3.81791 46.1586 3.85072 46.06 3.93166 46.0194C4.29947 45.8344 4.5765 45.7763 4.58807 45.7738C4.67744 45.7549 4.76354 45.8125 4.78182 45.9014C4.8001 45.9902 4.74307 46.0772 4.65432 46.0955C4.65197 46.0961 4.40541 46.1488 4.07932 46.3127C4.05557 46.3249 4.03025 46.3302 4.00557 46.3302Z" fill="#241726"/>
<path d="M73.6005 46.743C73.5959 46.743 73.591 46.7427 73.5865 46.7424C73.3585 46.7229 73.1294 46.6732 72.9057 46.5943C72.8202 46.5641 72.7754 46.4702 72.8055 46.3849C72.8357 46.2993 72.929 46.2537 73.0151 46.2845C73.2124 46.354 73.4141 46.398 73.6143 46.4154C73.7048 46.423 73.7716 46.5026 73.764 46.593C73.7568 46.6787 73.6849 46.743 73.6005 46.743ZM74.254 46.7113C74.1763 46.7113 74.1073 46.6562 74.0926 46.577C74.076 46.4877 74.1351 46.4021 74.2243 46.3859C74.421 46.3493 74.6182 46.2865 74.8101 46.1988C74.8929 46.1613 74.9898 46.1976 75.0277 46.2799C75.0652 46.3627 75.029 46.4598 74.9465 46.4977C74.7301 46.5965 74.5073 46.6674 74.284 46.7085C74.2738 46.7104 74.2638 46.7113 74.254 46.7113ZM72.3696 46.3188C72.3402 46.3188 72.3104 46.3109 72.2835 46.2945C72.0937 46.1771 71.9094 46.0382 71.7359 45.8807C71.6687 45.8201 71.6635 45.7162 71.7245 45.6488C71.7851 45.5815 71.8893 45.5763 71.9565 45.6376C72.1151 45.7813 72.2832 45.9084 72.456 46.0148C72.5332 46.0626 72.5571 46.1637 72.5094 46.2409C72.4785 46.2912 72.4246 46.3188 72.3696 46.3188ZM75.4437 46.1802C75.3927 46.1802 75.3424 46.1565 75.3104 46.1123C75.2573 46.0385 75.2738 45.9359 75.3474 45.8829C75.509 45.7662 75.6705 45.6285 75.8276 45.4737C75.8926 45.4102 75.9963 45.4109 76.0598 45.4755C76.1235 45.5401 76.1227 45.644 76.0582 45.7077C75.8891 45.8741 75.7149 46.0227 75.5396 46.149C75.5105 46.1702 75.477 46.1802 75.4437 46.1802ZM71.399 45.4432C71.3502 45.4432 71.3021 45.4216 71.2698 45.3804C71.1235 45.1943 70.9976 45.0007 70.8952 44.8054C70.8532 44.7249 70.8841 44.6257 70.9644 44.5834C71.0449 44.542 71.144 44.5724 71.186 44.6526C71.2791 44.8305 71.3941 45.0073 71.5279 45.1776C71.584 45.2488 71.5715 45.3521 71.5002 45.4082C71.4702 45.4316 71.4344 45.4432 71.399 45.4432ZM76.3818 45.2671C76.3457 45.2671 76.3093 45.2552 76.279 45.2309C76.2084 45.1741 76.1973 45.0705 76.254 44.9999C76.3363 44.8973 76.4188 44.7885 76.501 44.6738C76.5465 44.6099 76.5891 44.5465 76.6291 44.4837C76.6784 44.4074 76.7798 44.3849 76.8559 44.4334C76.9324 44.4821 76.9548 44.5838 76.9062 44.6601C76.8629 44.728 76.8169 44.796 76.7682 44.8645C76.6823 44.9851 76.596 45.0988 76.5098 45.206C76.4774 45.2463 76.4299 45.2671 76.3818 45.2671ZM77.0732 44.1555C77.0523 44.1555 77.0307 44.1513 77.0102 44.143C76.9265 44.108 76.8868 44.0123 76.9215 43.9282C77.0037 43.731 77.0638 43.5309 77.1005 43.3335C77.1173 43.2443 77.202 43.1854 77.2923 43.2023C77.3815 43.219 77.4401 43.3046 77.4237 43.3937C77.3826 43.6137 77.3157 43.836 77.2249 44.0545C77.1987 44.1173 77.1376 44.1555 77.0732 44.1555ZM77.3063 42.8745C77.2196 42.8745 77.1471 42.8065 77.1424 42.7188C77.1318 42.5149 77.0971 42.3102 77.0388 42.1104C77.0135 42.0235 77.0635 41.9324 77.1505 41.9068C77.2376 41.8821 77.3287 41.9315 77.354 42.0187C77.4193 42.2429 77.4585 42.4726 77.4704 42.7015C77.4751 42.7923 77.4054 42.8696 77.3149 42.874C77.3121 42.8745 77.3093 42.8745 77.3063 42.8745ZM76.948 41.6224C76.8893 41.6224 76.8326 41.591 76.8029 41.5355C76.7077 41.357 76.5919 41.1805 76.4588 41.0115C76.4029 40.9399 76.4151 40.8366 76.4863 40.7809C76.5576 40.7245 76.6612 40.7376 76.7169 40.808C76.8621 40.9924 76.9885 41.1852 77.0929 41.3809C77.1355 41.461 77.1052 41.5605 77.0252 41.6032C77.0004 41.6163 76.974 41.6224 76.948 41.6224ZM73.7624 40.8655C73.6732 40.8655 73.5999 40.794 73.5982 40.7046C73.5965 40.6141 73.6685 40.5391 73.759 40.5373C73.9423 40.5337 74.144 40.4982 74.3585 40.4318C74.4462 40.4046 74.5371 40.4537 74.564 40.5402C74.5907 40.6268 74.5423 40.7188 74.4557 40.7455C74.2116 40.8209 73.9794 40.8616 73.7655 40.8659C73.7646 40.8655 73.7635 40.8655 73.7624 40.8655ZM73.1346 40.7112C73.1026 40.7112 73.0701 40.7018 73.0418 40.6823C72.8338 40.5393 72.7193 40.3176 72.7193 40.0585C72.7193 40.0259 72.721 39.9921 72.7248 39.9577C72.7343 39.8673 72.8137 39.8005 72.9055 39.8118C72.9957 39.8215 73.061 39.9023 73.0513 39.9924C73.049 40.0152 73.0477 40.0373 73.0477 40.0585C73.0477 40.2105 73.1084 40.3295 73.2279 40.4116C73.3026 40.4629 73.3215 40.5652 73.2702 40.6399C73.2382 40.6865 73.1868 40.7112 73.1346 40.7112ZM76.1434 40.5913C76.103 40.5913 76.0627 40.5766 76.0312 40.5471C75.8932 40.4176 75.7454 40.2954 75.591 40.183C75.4238 40.2955 75.2551 40.3963 75.0884 40.4826C75.0076 40.5243 74.9085 40.4926 74.8671 40.412C74.8255 40.3315 74.8569 40.2323 74.9376 40.1907C75.1169 40.098 75.2993 39.9871 75.4798 39.861C75.5301 39.8257 75.594 39.8232 75.646 39.8482C75.6749 39.8504 75.7038 39.8601 75.7291 39.878C75.9145 40.0088 76.0916 40.1535 76.2557 40.3071C76.3219 40.3693 76.3252 40.4732 76.2632 40.5393C76.2307 40.574 76.1871 40.5913 76.1434 40.5913ZM75.073 39.8351C75.0477 39.8351 75.022 39.8293 74.9977 39.8168C74.8035 39.716 74.6084 39.634 74.4177 39.5727C74.3313 39.5451 74.2838 39.4527 74.3116 39.3662C74.3396 39.2799 74.4324 39.2324 74.5182 39.2604C74.7262 39.3271 74.9384 39.4163 75.1488 39.5249C75.2293 39.5666 75.2607 39.6657 75.219 39.7462C75.1898 39.8026 75.1326 39.8351 75.073 39.8351ZM76.0899 39.7545C76.0441 39.7545 75.9987 39.7355 75.9663 39.6984C75.9066 39.6301 75.9135 39.5262 75.9819 39.4665C76.1391 39.3291 76.2949 39.1801 76.4454 39.0226C76.5079 38.9571 76.6123 38.9549 76.6774 39.0174C76.743 39.0799 76.7454 39.1838 76.6827 39.2496C76.5257 39.4138 76.3627 39.5701 76.198 39.714C76.1666 39.741 76.1282 39.7545 76.0899 39.7545ZM73.1916 39.5826C73.1374 39.5826 73.0843 39.5557 73.053 39.5065C73.0043 39.4302 73.0268 39.3285 73.103 39.2798C73.2674 39.1752 73.4784 39.122 73.7299 39.122C73.7591 39.1195 73.7979 39.1229 73.8332 39.1248C73.9238 39.1293 73.9934 39.2065 73.989 39.297C73.9843 39.3877 73.9068 39.4612 73.8166 39.4526C73.7873 39.451 73.7551 39.448 73.7304 39.4504C73.5446 39.4504 73.389 39.4873 73.2799 39.5568C73.2524 39.5743 73.2218 39.5826 73.1916 39.5826ZM76.9976 38.8074C76.9612 38.8074 76.9246 38.7952 76.8941 38.7705C76.8237 38.7135 76.8132 38.6099 76.8704 38.5396C77.0026 38.377 77.1335 38.2038 77.2598 38.0249C77.3119 37.9509 77.4149 37.9329 77.4887 37.9851C77.5627 38.0374 77.5805 38.1399 77.5284 38.214C77.3979 38.399 77.2623 38.5784 77.1252 38.7468C77.0926 38.787 77.0454 38.8074 76.9976 38.8074ZM77.7545 37.7352C77.7251 37.7352 77.6954 37.7276 77.6687 37.7109C77.5913 37.6634 77.5671 37.5624 77.6148 37.4851C77.6944 37.3552 77.7735 37.2209 77.8515 37.0816C77.8804 37.0298 77.9079 36.9784 77.934 36.9268C77.9752 36.846 78.0741 36.8141 78.1546 36.8543C78.2355 36.8954 78.268 36.9941 78.2271 37.0749C78.1988 37.1304 78.1693 37.1862 78.138 37.242C78.0577 37.3849 77.9766 37.5232 77.8946 37.657C77.8635 37.7073 77.8096 37.7352 77.7545 37.7352ZM78.3277 36.5576C78.3118 36.5576 78.2955 36.5554 78.2794 36.5502C78.1927 36.5237 78.1441 36.432 78.1707 36.3449C78.2334 36.1416 78.2752 35.9363 78.2952 35.7349C78.304 35.6445 78.3815 35.581 78.4748 35.5874C78.5649 35.5963 78.631 35.677 78.622 35.767C78.5998 35.9905 78.5537 36.2173 78.4846 36.4418C78.4629 36.5123 78.398 36.5576 78.3277 36.5576ZM78.4516 35.2599C78.3696 35.2599 78.2987 35.1987 78.2887 35.1149C78.2646 34.9132 78.2179 34.7096 78.1499 34.5107C78.1205 34.4248 78.1665 34.3315 78.2523 34.302C78.3377 34.2734 78.4316 34.3187 78.4607 34.4043C78.5362 34.6252 78.588 34.8513 78.6148 35.0765C78.6255 35.1663 78.5612 35.248 78.4712 35.2587C78.4648 35.2596 78.458 35.2599 78.4516 35.2599ZM78.0355 34.0248C77.9784 34.0248 77.9229 33.9949 77.8926 33.9413C77.7921 33.7643 77.673 33.5888 77.5382 33.4198C77.4816 33.3488 77.4932 33.2455 77.564 33.1891C77.6351 33.133 77.7384 33.144 77.7948 33.2151C77.9404 33.3976 78.0694 33.5874 78.1784 33.7796C78.223 33.8585 78.1954 33.9585 78.1165 34.0032C78.0907 34.018 78.063 34.0248 78.0355 34.0248ZM77.2223 32.9971C77.1813 32.9971 77.1405 32.982 77.1085 32.9515C76.9585 32.8079 76.7952 32.669 76.6227 32.5387C76.5504 32.4838 76.536 32.3809 76.5907 32.3084C76.6452 32.2359 76.7482 32.2221 76.8207 32.2763C77.0034 32.4143 77.1766 32.5618 77.336 32.7141C77.4015 32.777 77.4037 32.8809 77.3409 32.9463C77.3085 32.9802 77.2654 32.9971 77.2223 32.9971ZM73.3048 32.7765C72.9849 32.7765 72.7832 32.561 72.7652 32.2001C72.7607 32.1096 72.8305 32.0327 72.9212 32.0282C73.0079 32.0135 73.0888 32.0934 73.0934 32.1841C73.1065 32.448 73.2404 32.448 73.3048 32.448C73.394 32.448 73.4774 32.5193 73.4796 32.6084C73.4815 32.6976 73.4226 32.772 73.3334 32.7759C73.3309 32.7762 73.3073 32.7765 73.3048 32.7765ZM73.9305 32.5391C73.8769 32.5391 73.8246 32.5132 73.793 32.4651C73.7434 32.3891 73.7643 32.2874 73.8402 32.2377C73.9979 32.1341 74.1593 32.0007 74.3199 31.8404C74.3843 31.777 74.4882 31.7766 74.5521 31.8407C74.616 31.9052 74.616 32.0091 74.5518 32.0732C74.3755 32.249 74.1968 32.3968 74.0205 32.5123C73.9929 32.5305 73.9616 32.5391 73.9305 32.5391ZM76.1771 32.2054C76.1484 32.2054 76.1193 32.198 76.0929 32.182C75.9088 32.072 75.7185 31.9713 75.5276 31.8834C75.4452 31.8455 75.4093 31.748 75.4473 31.6655C75.4851 31.5827 75.5818 31.5465 75.6652 31.5851C75.8668 31.678 76.0674 31.784 76.2616 31.9004C76.3394 31.947 76.3648 32.0476 76.3182 32.1255C76.2874 32.1768 76.2329 32.2054 76.1771 32.2054ZM73.1043 31.7405C73.0648 31.7405 73.0254 31.7265 72.994 31.6979C72.9268 31.637 72.9218 31.533 72.9827 31.466C73.138 31.2948 73.3701 31.1896 73.6724 31.1534C73.7646 31.1421 73.8443 31.2066 73.8552 31.2968C73.866 31.3866 73.8018 31.4684 73.7118 31.4793C73.493 31.5059 73.3251 31.5774 73.2257 31.6868C73.1934 31.7223 73.1488 31.7405 73.1043 31.7405ZM74.9848 31.6579C74.9679 31.6579 74.951 31.6554 74.9341 31.6499C74.9071 31.6413 74.8801 31.6326 74.8532 31.6246C74.8304 31.6227 74.8076 31.6163 74.7868 31.6048C74.6262 31.5585 74.4701 31.5237 74.3215 31.5005C74.232 31.4865 74.1705 31.4027 74.1846 31.3129C74.1985 31.2237 74.2818 31.1635 74.3723 31.176C74.5112 31.1979 74.6552 31.2287 74.8032 31.2684C74.9034 31.1285 74.998 30.9816 75.0854 30.8302C75.1307 30.7516 75.2313 30.7245 75.3098 30.7702C75.3884 30.8155 75.4152 30.9159 75.3699 30.9945C75.2905 31.1318 75.2055 31.2659 75.116 31.3948C75.1471 31.4362 75.1584 31.4916 75.1412 31.5446C75.1185 31.6135 75.0541 31.6579 74.9848 31.6579ZM75.5219 30.4891C75.5002 30.4891 75.4782 30.4849 75.4568 30.4757C75.3735 30.4398 75.3354 30.3429 75.3713 30.2599C75.4554 30.0655 75.529 29.8641 75.5904 29.6612C75.6165 29.5746 75.7084 29.5255 75.7951 29.5515C75.8818 29.5777 75.931 29.6691 75.9048 29.7562C75.8398 29.9713 75.7618 30.1846 75.6729 30.3902C75.646 30.4523 75.5854 30.4891 75.5219 30.4891ZM75.9012 29.2348C75.8915 29.2348 75.8818 29.2338 75.8718 29.2323C75.7826 29.2162 75.7234 29.1305 75.7393 29.0415C75.777 28.833 75.8029 28.6201 75.8162 28.4087C75.8218 28.3182 75.9005 28.2451 75.9905 28.2551C76.081 28.2609 76.1498 28.3388 76.144 28.4293C76.1299 28.6535 76.1024 28.879 76.0627 29.0999C76.0482 29.179 75.9791 29.2348 75.9012 29.2348ZM75.9746 27.9276C75.8909 27.9276 75.8195 27.8641 75.8113 27.7791C75.791 27.5668 75.7502 27.3626 75.6898 27.172C75.6623 27.0854 75.7101 26.993 75.7966 26.9657C75.8835 26.9391 75.9755 26.9862 76.0029 27.0726C76.0702 27.2852 76.116 27.5123 76.1382 27.7477C76.1468 27.8382 76.0807 27.9184 75.9904 27.927C75.9851 27.9271 75.9798 27.9276 75.9746 27.9276ZM75.577 26.6909C75.5215 26.6909 75.4673 26.6626 75.4363 26.612C75.3315 26.4388 75.204 26.2755 75.0571 26.126C74.9937 26.0612 74.9946 25.9573 75.0591 25.8938C75.124 25.8301 75.2274 25.831 75.2915 25.8957C75.4559 26.0632 75.5993 26.247 75.7173 26.4413C75.7643 26.519 75.7396 26.6199 75.662 26.6671C75.6352 26.683 75.6059 26.6909 75.577 26.6909ZM74.6696 25.7562C74.6379 25.7562 74.6057 25.7468 74.5773 25.7276C74.4113 25.6146 74.2268 25.5098 74.0287 25.4165C73.9468 25.378 73.9116 25.2799 73.9502 25.198C73.9887 25.1155 74.0871 25.081 74.1688 25.1195C74.3824 25.2202 74.5821 25.3334 74.7623 25.4562C74.8371 25.5071 74.8566 25.6095 74.8054 25.6843C74.7737 25.7312 74.7219 25.7562 74.6696 25.7562ZM73.4874 25.1907C73.4704 25.1907 73.4532 25.188 73.4363 25.1827C73.239 25.1179 73.0307 25.0615 72.8176 25.0146C72.729 24.9954 72.6729 24.9077 72.6923 24.8193C72.7115 24.7304 72.7985 24.6743 72.8877 24.6938C73.1116 24.7429 73.3307 24.8023 73.5385 24.8702C73.6246 24.8988 73.6716 24.9915 73.6434 25.0777C73.6209 25.1468 73.5565 25.1907 73.4874 25.1907ZM72.204 24.906C72.1971 24.906 72.1901 24.9057 72.1829 24.9048C71.8024 24.856 71.5466 24.8538 71.544 24.8538C71.4534 24.8532 71.3804 24.7791 71.3809 24.6887C71.3815 24.5982 71.4548 24.5254 71.5451 24.5254C71.5565 24.5276 71.811 24.5263 72.2245 24.579C72.3145 24.5905 72.3779 24.6726 72.3665 24.7627C72.3562 24.8454 72.2854 24.906 72.204 24.906Z" fill="#241726"/>
<path d="M64.9503 34.8179C64.9503 34.8179 61.4507 28.9382 62.8295 29.2622C64.2084 29.5863 65.3101 33.2955 65.3101 33.2955C65.3101 33.2955 65.5067 25.8696 66.4339 26.9861C67.3612 28.1027 66.4339 31.9046 66.4339 31.9046C66.4339 31.9046 66.4254 25.7769 67.5887 26.9861C68.752 28.1954 67.5887 32.3683 67.5887 32.3683C67.5887 32.3683 68.752 27.2207 69.3084 28.2182C69.8648 29.2155 68.4739 33.3885 68.4739 33.3885C68.4739 33.3885 70.4212 30.1315 70.7922 30.8791C71.1631 31.6266 67.5887 36.0777 67.5887 36.0777V39.2305L64.5792 38.703L64.9503 34.8179Z" fill="#E38B72"/>
<path d="M66.6638 35.2517C66.6493 35.2517 66.6344 35.2498 66.6197 35.2456C66.5325 35.2215 66.4813 35.1311 66.5054 35.0436C66.5857 34.7529 66.7177 33.9208 66.3672 33.5659C66.17 33.3661 65.8285 33.3283 65.3521 33.4537C65.2647 33.4781 65.1747 33.4245 65.1515 33.3367C65.1283 33.2492 65.1808 33.1594 65.2683 33.1362C65.8666 32.9787 66.3152 33.0461 66.6015 33.3358C67.1565 33.8986 66.8355 35.0815 66.8218 35.1315C66.8018 35.2044 66.7357 35.2517 66.6638 35.2517Z" fill="#241726"/>
<path d="M66.434 32.0689C66.3468 32.0689 66.2742 32.0003 66.2701 31.912C66.239 31.2298 66.3796 29.3305 66.3857 29.25C66.3923 29.1595 66.4721 29.0903 66.5617 29.0983C66.6521 29.105 66.72 29.1839 66.7132 29.2744C66.7118 29.2939 66.5681 31.2347 66.5982 31.8972C66.6025 31.9877 66.5321 32.0647 66.4417 32.0684C66.4392 32.0689 66.4367 32.0689 66.434 32.0689Z" fill="#241726"/>
<path d="M67.5887 32.5318C67.5795 32.5318 67.5701 32.5312 67.5608 32.5296C67.4712 32.5143 67.4114 32.4292 67.4267 32.3398L67.9247 29.4392C67.94 29.35 68.025 29.2898 68.1142 29.3051C68.2037 29.3204 68.2636 29.4054 68.2483 29.495L67.7503 32.3956C67.7367 32.4754 67.6673 32.5318 67.5887 32.5318Z" fill="#241726"/>
<path d="M63.6416 35.6667C63.6416 35.6667 63.7795 45.657 63.076 45.9353C62.3726 46.2135 55.6202 41.9993 55.6202 41.9993L39.8537 43.1831L24.0607 44.5002C24.0607 44.5002 9.19727 51.2902 9.05665 53.5412C8.91602 55.792 16.3893 59.9179 16.3893 59.9179L19.871 56.2779L13.1345 53.816L22.0921 50.6045C20.2966 57.124 19.6466 62.6082 19.6466 62.6082L32.3904 62.3942L35.7656 71.5413L39.7187 71.2029L40.4713 62.2584L41.7571 62.2368L42.5116 71.2029L46.4648 71.5413L49.9488 62.0992L63.6105 61.8696C63.6105 61.8696 61.6534 54.6213 57.9202 46.9598C60.7199 47.7979 64.3057 48.8729 64.8766 49.0524C65.8335 49.3532 68.4424 37.159 68.4424 37.159L63.6416 35.6667Z" fill="#DF4F3E"/>
<path d="M37.9442 40.394L39.1337 61.1308L18.6509 61.1859L19.0729 65.3511L64.8773 63.9795L64.4246 59.7853L41.629 60.709C41.629 60.709 40.9271 39.6075 40.2942 39.7129C39.6613 39.8184 37.9442 40.394 37.9442 40.394Z" fill="white"/>
<path d="M19.0731 65.5153C18.9891 65.5153 18.9181 65.4519 18.9097 65.3678L18.4877 61.2025C18.483 61.1562 18.4981 61.1104 18.5291 61.0758C18.5602 61.0414 18.6042 61.0215 18.6506 61.0215L38.9602 60.9667L37.7803 40.4031C37.7759 40.3294 37.8219 40.2617 37.892 40.2383C37.9627 40.2145 39.6287 39.6575 40.2675 39.5509C40.3131 39.5436 40.3902 39.565 40.4269 39.5951C41.0536 40.1083 41.6203 55.5325 41.7878 60.5381L64.4183 59.6209C64.5011 59.6197 64.5789 59.6815 64.5881 59.7675L65.0406 63.9615C65.0456 64.0072 65.0312 64.0526 65.0011 64.087C64.9711 64.1217 64.928 64.1419 64.8823 64.1434L19.0781 65.5153C19.0764 65.5153 19.0747 65.5153 19.0731 65.5153ZM18.8328 61.3494L19.2212 65.1823L64.6952 63.8206L64.2783 59.9556L41.6359 60.8733C41.5944 60.8736 41.5498 60.8592 41.5177 60.8294C41.4856 60.7995 41.4669 60.7581 41.4653 60.7145C41.2031 52.8347 40.6645 40.9723 40.2339 39.8915C39.6709 40.0045 38.4928 40.3861 38.1153 40.5106L39.2978 61.1215C39.3003 61.1664 39.2844 61.2108 39.2534 61.2434C39.2227 61.2761 39.1795 61.2951 39.1344 61.2951L18.8328 61.3494Z" fill="#241726"/>
<path d="M23.8979 15.7632C23.8979 15.7632 35.4885 8.49427 40.8343 12.7146C46.1799 16.9349 58.3157 26.9879 38.1765 33.5586C18.0373 40.1294 18.9743 18.9986 23.8979 15.7632Z" fill="#E38B72"/>
<path d="M24.3344 17.7871C24.3344 17.7871 17.8494 28.5598 27.5561 32.9207C37.2629 37.2817 29.1739 23.9929 36.3483 23.9226C43.5227 23.8523 43.001 32.9595 46.1252 27.5098C50.5564 19.7803 38.3372 13.8459 40.166 13.5645C41.9947 13.2831 43.2571 12.794 43.8041 13.8642C45.4219 17.0293 64.3427 19.7725 62.2325 30.3232C60.1224 40.8739 53.6513 48.4704 35.0822 49.0331C16.513 49.5961 11.5191 37.7793 16.3021 28.9167C21.085 20.0542 18.5735 18.5025 20.121 18.3618C21.6683 18.2212 24.3344 17.7871 24.3344 17.7871Z" fill="#F4F1E3"/>
<path d="M37.0864 26.201C36.535 26.201 35.0328 25.0377 34.3852 24.5143C34.3147 24.4576 34.3038 24.354 34.3606 24.2833C34.4178 24.2132 34.5208 24.2016 34.5917 24.259C35.525 25.013 36.6583 25.8 37.0084 25.8722C36.9809 25.354 35.9627 22.9216 34.9338 20.738C34.8952 20.656 34.9303 20.5582 35.0122 20.5196C35.0945 20.4811 35.1923 20.5157 35.2308 20.5982C35.9266 22.0744 37.5217 25.5621 37.3084 26.061C37.2819 26.1229 37.2342 26.1682 37.1741 26.1883C37.1483 26.1968 37.1191 26.201 37.0864 26.201Z" fill="#241726"/>
<path d="M37.8719 31.126C37.7711 31.126 37.6532 31.0977 37.5191 31.0209C35.9693 30.133 34.4072 27.0326 34.3416 26.9012C34.301 26.8201 34.334 26.7212 34.4151 26.6809C34.496 26.6401 34.5949 26.6735 34.6354 26.7543C34.651 26.7857 36.2185 29.8974 37.6824 30.736C37.8449 30.8287 37.9296 30.7969 37.9793 30.7649C38.583 30.3737 38.5176 27.3216 38.3344 25.4899C38.3254 25.3998 38.3911 25.3193 38.4815 25.3102C38.5733 25.3002 38.6522 25.3669 38.6613 25.4571C38.7118 25.9626 39.1269 30.4123 38.1579 31.0402C38.0876 31.086 37.9918 31.126 37.8719 31.126Z" fill="#241726"/>
<path d="M28.9327 25.6384C26.9936 25.6384 26.0302 21.875 25.9894 21.7118C25.9672 21.624 26.0208 21.5348 26.1088 21.5126C26.197 21.4911 26.2859 21.544 26.308 21.6323C26.3177 21.6701 27.2878 25.4403 29.0205 25.3065C29.313 25.285 29.5202 25.1703 29.6536 24.9556C30.2225 24.0415 29.3116 21.7564 29.3022 21.7336C29.2683 21.6492 29.3089 21.5536 29.3931 21.5196C29.4764 21.4864 29.5728 21.5264 29.6067 21.6104C29.6474 21.7104 30.5891 24.0736 29.9325 25.1287C29.7424 25.4343 29.4436 25.6043 29.0447 25.6342C29.007 25.6368 28.9697 25.6384 28.9327 25.6384Z" fill="#241726"/>
<path d="M40.4255 22.6996C40.3632 22.6996 40.295 22.6926 40.2203 22.6768C38.4778 22.3051 38.0313 19.0873 38.0132 18.9504C38.0013 18.8605 38.0644 18.7782 38.1542 18.7663C38.2439 18.7496 38.3266 18.8173 38.3386 18.9074C38.3428 18.9385 38.7721 22.0319 40.2888 22.3555C40.5185 22.4043 40.616 22.3308 40.668 22.2708C41.1047 21.7708 40.5691 19.6419 40.1289 18.4174C40.0983 18.3321 40.1425 18.2382 40.228 18.2074C40.3125 18.1773 40.4071 18.2212 40.438 18.3065C40.5611 18.649 41.6216 21.6782 40.9153 22.4868C40.825 22.5905 40.6714 22.6996 40.4255 22.6996Z" fill="#241726"/>
<path d="M27.8014 29.319C28.5177 28.8896 28.7502 27.9608 28.3208 27.2445C27.8914 26.5281 26.9625 26.2956 26.2462 26.725C25.5299 27.1545 25.2973 28.0833 25.7268 28.7996C26.1562 29.5159 27.085 29.7485 27.8014 29.319Z" fill="#DF4F3E"/>
<path d="M43.4873 24.0433C44.3224 24.0433 44.9995 23.3662 44.9995 22.5311C44.9995 21.6959 44.3224 21.0189 43.4873 21.0189C42.6521 21.0189 41.9751 21.6959 41.9751 22.5311C41.9751 23.3662 42.6521 24.0433 43.4873 24.0433Z" fill="#DF4F3E"/>
<path d="M37.8905 11.2904C37.8905 11.2904 34.2225 5.35352 28.0758 2.25868C21.9289 -0.836162 12.9258 9.78477 12.9258 9.78477L21.0147 7.53399C21.0147 7.53399 19.488 15.0145 20.1209 15.8362C20.7537 16.6579 37.8905 11.2904 37.8905 11.2904Z" fill="#DF4F3E"/>
<path d="M12.1532 12.0373C13.3459 12.0373 14.3127 11.0705 14.3127 9.87778C14.3127 8.6851 13.3459 7.71825 12.1532 7.71825C10.9605 7.71825 9.99365 8.6851 9.99365 9.87778C9.99365 11.0705 10.9605 12.0373 12.1532 12.0373Z" fill="white"/>
<path d="M12.1533 12.2015C10.8721 12.2015 9.82959 11.1592 9.82959 9.87794C9.82959 8.59669 10.8721 7.55403 12.1533 7.55403C13.4346 7.55403 14.4771 8.59669 14.4771 9.87794C14.4771 11.1592 13.4346 12.2015 12.1533 12.2015ZM12.1533 7.88231C11.053 7.88231 10.1579 8.77747 10.1579 9.87778C10.1579 10.9778 11.053 11.8729 12.1533 11.8729C13.2535 11.8729 14.1487 10.9778 14.1487 9.87778C14.1487 8.77747 13.2535 7.88231 12.1533 7.88231Z" fill="#241726"/>
<path d="M19.0729 15.3941C19.0729 15.3941 39.5648 7.61844 41.2479 9.38001C42.9311 11.1416 43.804 13.8641 43.804 13.8641C43.804 13.8641 19.9595 21.7044 19.4672 20.6681C18.9747 19.6319 19.0729 15.3941 19.0729 15.3941Z" fill="white"/>
<path d="M19.8035 20.9256C19.4073 20.9256 19.3577 20.8214 19.3184 20.7386C18.8151 19.6792 18.9044 15.565 18.9085 15.3902C18.9101 15.3235 18.9519 15.2641 19.0144 15.2403C21.1221 14.4408 39.6576 7.47876 41.3662 9.26626C43.0559 11.035 43.9238 13.701 43.9599 13.8138C43.9876 13.8997 43.9405 13.9917 43.8549 14.0197C43.7952 14.0395 37.8232 16.0014 31.8676 17.8116C23.4041 20.3844 20.7055 20.9256 19.8035 20.9256ZM19.6059 20.5777C20.5496 21.0439 34.7257 16.6728 43.5943 13.76C43.3823 13.1631 42.5388 10.9691 41.1291 9.49345C39.9535 8.26283 27.4335 12.4027 19.2351 15.5083C19.2241 16.1742 19.1887 19.6483 19.6059 20.5777Z" fill="#241726"/>
<path d="M20.6384 26.5863C21.5077 25.717 21.5077 24.3077 20.6384 23.4384C19.7691 22.5691 18.3597 22.5691 17.4905 23.4384C16.6212 24.3077 16.6212 25.717 17.4905 26.5863C18.3597 27.4556 19.7691 27.4556 20.6384 26.5863Z" fill="#E38B72"/>
<path d="M47.8509 19.032C49.0803 19.032 50.0769 18.0354 50.0769 16.806C50.0769 15.5767 49.0803 14.5801 47.8509 14.5801C46.6216 14.5801 45.625 15.5767 45.625 16.806C45.625 18.0354 46.6216 19.032 47.8509 19.032Z" fill="#E38B72"/>
<path d="M19.7219 25.8944C19.6422 25.8944 19.5722 25.8364 19.5597 25.7551C19.3869 24.6391 19.075 24.3198 18.8441 24.2484C18.4835 24.1378 18.0879 24.5534 18.0836 24.5573C18.0221 24.6237 17.9183 24.6275 17.8516 24.5653C17.7854 24.5034 17.7815 24.4001 17.8433 24.3337C17.865 24.3103 18.3818 23.7631 18.9394 23.9341C19.4066 24.0772 19.7244 24.673 19.8843 25.7051C19.898 25.7947 19.8368 25.8786 19.7472 25.8925C19.7386 25.8937 19.7302 25.8944 19.7219 25.8944Z" fill="#241726"/>
<path d="M47.5249 18.3023C47.4536 18.3023 47.3882 18.2558 47.3672 18.184C47.0635 17.1436 47.0902 16.3748 47.4463 15.9001C47.781 15.4537 48.2775 15.4486 48.2986 15.4486C48.3894 15.4486 48.4628 15.522 48.4628 15.6128C48.4628 15.7033 48.3899 15.7764 48.2997 15.777C48.2852 15.7773 47.9392 15.7856 47.7055 16.1018C47.4224 16.4848 47.4144 17.1731 47.6825 18.0923C47.7078 18.1792 47.658 18.2703 47.571 18.2956C47.5555 18.3001 47.54 18.3023 47.5249 18.3023Z" fill="#241726"/>
<path d="M18.5522 4.60014C18.5522 4.60014 20.6624 7.39342 23.4758 6.33826C26.2894 5.28327 25.2343 2.32905 27.063 5.14248C28.8918 7.95592 33.4357 6.0517 33.3707 5.99342C33.3057 5.93514 29.7358 1.90686 26.7115 0.992483C23.6869 0.0782646 18.5522 4.60014 18.5522 4.60014Z" fill="#F4F1E3"/>
<path d="M18.6504 57.2272C18.6504 57.2272 21.6824 58.7791 20.6699 61.6017C19.6574 64.4242 14.0943 66.1124 15.2286 64.4546C15.9144 63.4522 19.0269 62.5027 19.0269 62.5027C19.0269 62.5027 14.9508 63.843 14.1765 62.9775C13.7516 62.5027 18.0558 61.8124 18.2213 61.8099C18.3868 61.8075 15.7563 62.1383 15.1233 61.1863C14.4904 60.2342 18.1685 61.9752 18.6505 60.1288C19.1326 58.2824 17.8138 58.3878 17.8138 58.3878L18.6504 57.2272Z" fill="#E38B72"/>
<path d="M21.0344 54.86C21.0344 54.86 60.1883 51.9981 60.2587 52.209C60.329 52.42 61.3015 54.8806 61.3015 54.8806L20.6108 56.8582L21.0344 54.86Z" fill="#241726"/>
<path d="M36.1851 52.5324L43.5219 51.9069V57.2275L36.931 57.891L36.1851 52.5324Z" fill="#E1AF01"/>
<path d="M38.0195 53.6974L41.688 53.3848V56.0451L38.3925 56.3768L38.0195 53.6974Z" fill="#241726"/>
<path d="M21.0141 7.69806C20.9423 7.69806 20.8763 7.65056 20.8562 7.57775C20.8318 7.49056 20.8829 7.4001 20.9702 7.37572C21.9212 7.11072 23.9827 7.2201 24.0701 7.22525C24.1607 7.2301 24.2299 7.30775 24.2249 7.39807C24.2201 7.48853 24.1432 7.56103 24.0521 7.55291C24.0313 7.55228 21.9571 7.44197 21.0585 7.69181C21.0437 7.69603 21.0287 7.69806 21.0141 7.69806Z" fill="#241726"/>
<path d="M35.9497 13.5394C35.9269 13.5394 35.9038 13.5346 35.8819 13.5248C35.7992 13.4873 35.7628 13.3898 35.8005 13.3073C35.98 12.913 36.2119 12.6934 36.4897 12.6537C36.8983 12.5973 37.2217 12.9648 37.2353 12.9808C37.2944 13.0494 37.2866 13.1524 37.2183 13.2118C37.15 13.2712 37.0464 13.2633 36.9867 13.1954C36.9258 13.1258 36.7257 12.9519 36.5349 12.979C36.3364 13.0082 36.1885 13.2477 36.0994 13.4434C36.0717 13.504 36.0121 13.5394 35.9497 13.5394Z" fill="#241726"/>
<path d="M37.6957 14.5226C37.6729 14.5226 37.6498 14.5177 37.6279 14.5077C37.5453 14.4702 37.509 14.3727 37.5465 14.2902C37.7259 13.896 37.9578 13.6763 38.2357 13.6366C38.6443 13.579 38.9678 13.9477 38.9814 13.9638C39.0404 14.0324 39.0326 14.1354 38.9643 14.1948C38.8961 14.2541 38.7926 14.2463 38.7328 14.1784C38.6718 14.1088 38.4701 13.9362 38.2809 13.9619C38.0823 13.9912 37.9345 14.2307 37.8454 14.4263C37.8178 14.4869 37.7582 14.5226 37.6957 14.5226Z" fill="#241726"/>
<path d="M33.9013 14.0104C33.8785 14.0104 33.8553 14.0055 33.8335 13.9957C33.751 13.9582 33.7146 13.8607 33.7521 13.7782C33.9314 13.384 34.1635 13.164 34.4413 13.1243C34.8519 13.0666 35.1733 13.4354 35.1869 13.4515C35.246 13.5201 35.2382 13.623 35.1699 13.6824C35.1014 13.7418 34.998 13.7344 34.9383 13.666C34.8774 13.5965 34.6803 13.4177 34.4864 13.4499C34.288 13.4788 34.14 13.7184 34.0508 13.9143C34.0233 13.9748 33.9636 14.0104 33.9013 14.0104Z" fill="#241726"/>
<path d="M35.6308 14.901C35.608 14.901 35.585 14.8962 35.563 14.8863C35.4803 14.8488 35.4441 14.7513 35.4816 14.6688C35.661 14.2746 35.8928 14.0546 36.1708 14.0149C36.5805 13.9562 36.903 14.326 36.9164 14.3421C36.9755 14.4107 36.9677 14.5137 36.8994 14.573C36.831 14.6324 36.7275 14.6251 36.6678 14.5566C36.6069 14.4871 36.4097 14.3077 36.216 14.3405C36.0175 14.3694 35.8696 14.609 35.7805 14.8049C35.7528 14.8654 35.6933 14.901 35.6308 14.901Z" fill="#241726"/>
<path d="M33.5132 15.5873C33.4904 15.5873 33.4673 15.5824 33.4454 15.5726C33.3627 15.5351 33.3263 15.4376 33.364 15.3551C33.5433 14.9608 33.7754 14.7408 34.0532 14.7012C34.4635 14.6424 34.7852 15.0123 34.7988 15.0283C34.8579 15.0969 34.8501 15.1999 34.7818 15.2593C34.7133 15.3187 34.6099 15.3112 34.5502 15.2429C34.4893 15.1733 34.2905 14.9949 34.0984 15.0268C33.8999 15.0557 33.7519 15.2952 33.6627 15.4912C33.6352 15.5518 33.5755 15.5873 33.5132 15.5873Z" fill="#241726"/>
<path d="M63.373 35.088L63.1875 36.8191L68.875 38.6427L69.5859 36.6644L63.373 35.088Z" fill="white"/>
<path d="M68.875 38.8071C68.8583 38.8071 68.8414 38.8046 68.8248 38.7994L63.1375 36.9755C63.0634 36.9514 63.0161 36.8789 63.0244 36.8013L63.2097 35.0704C63.2147 35.0232 63.2402 34.9802 63.2791 34.9533C63.3181 34.9261 63.3672 34.9171 63.4133 34.9289L69.6263 36.5057C69.6711 36.5169 69.7092 36.5468 69.7308 36.5877C69.7527 36.6285 69.7559 36.6766 69.7405 36.7202L69.0295 38.6985C69.0055 38.765 68.9425 38.8071 68.875 38.8071ZM63.3652 36.7035L68.7742 38.438L69.3703 36.7796L63.5161 35.2936L63.3652 36.7035Z" fill="#241726"/>
<path d="M18.8432 54.8989L14.999 59.6188L16.5392 60.7095L20.8711 55.6055L18.8432 54.8989Z" fill="white"/>
<path d="M16.5389 60.8736C16.5061 60.8736 16.4728 60.8636 16.4441 60.8434L14.9038 59.7527C14.8667 59.7264 14.8422 59.6859 14.836 59.6408C14.8299 59.5959 14.8427 59.5503 14.8714 59.515L18.7158 54.7952C18.7594 54.7413 18.8319 54.7205 18.8972 54.7439L20.925 55.4505C20.9761 55.4681 21.0152 55.5102 21.0294 55.562C21.0436 55.6144 21.0311 55.6705 20.9963 55.7116L16.6644 60.8155C16.6321 60.8538 16.5858 60.8736 16.5389 60.8736ZM15.2372 59.5863L16.5113 60.4884L20.591 55.6817L18.898 55.0919L15.2372 59.5863Z" fill="#241726"/>
<path d="M34.8027 47.895C34.5695 47.895 34.324 47.8748 34.066 47.8304C32.6084 47.5803 31.6232 46.9815 31.0068 46.3095C30.9993 46.3187 30.9918 46.3281 30.984 46.337C30.4798 46.9406 29.3246 47.857 27.252 47.2068C25.3973 46.6254 24.5499 45.607 24.2295 44.6596C23.837 45.1353 23.353 45.5484 22.8291 45.7418C22.2352 45.9612 21.3441 45.9871 20.4799 44.8628C19.5796 43.6915 19.4152 42.7214 19.4866 42.0301C19.2623 42.0609 19.0312 42.0718 18.799 42.0584C17.8016 41.9996 17.0515 41.4898 16.6868 40.6224C16.0985 39.2235 16.5912 37.8739 17.2716 37.0351C16.8049 36.7435 16.2598 36.1787 16.1337 35.107C15.974 33.75 16.7135 32.5851 17.5601 31.8443C17.1659 31.5582 16.8587 31.1426 16.683 30.6368C16.4605 29.9964 16.4823 29.4431 16.7474 28.9918C17.1898 28.2387 18.1443 28.0631 18.1848 28.0559C18.2745 28.0385 18.359 28.0995 18.3748 28.1887C18.3907 28.2782 18.3312 28.3632 18.242 28.3792C18.2337 28.3807 17.3935 28.5379 17.0295 29.1598C16.8163 29.5239 16.8041 29.9846 16.9932 30.529C17.1871 31.0871 17.5154 31.4239 17.8277 31.6268C18.2249 31.3267 18.6274 31.1226 18.9571 31.0367C19.5599 30.8807 19.7456 31.1582 19.7979 31.2849C19.8966 31.5239 19.8715 31.7548 19.727 31.9357C19.5062 32.2115 19.0268 32.3331 18.5038 32.2423C18.2746 32.2032 18.0574 32.1298 17.8566 32.0268C17.051 32.7045 16.3112 33.8068 16.4598 35.0685C16.5751 36.0484 17.0813 36.5423 17.4938 36.7854C17.7054 36.5695 17.9252 36.4031 18.1295 36.2985C18.597 36.0593 18.9984 36.1182 19.2041 36.4551C19.3874 36.7556 19.2862 36.9721 19.2096 37.0742C18.9938 37.3624 18.4487 37.4578 17.8838 37.3057C17.8093 37.2859 17.6991 37.2509 17.5696 37.1935C16.939 37.9492 16.4501 39.2137 16.9893 40.4957C17.3912 41.4512 18.2055 41.6946 18.818 41.7309C19.0604 41.7446 19.3063 41.7276 19.5441 41.6876C19.5831 41.5234 19.6337 41.382 19.6845 41.2649C19.9448 40.6674 20.4446 40.2204 20.8999 40.1773C21.1246 40.1562 21.311 40.237 21.4254 40.4049C21.5513 40.5893 21.5527 40.8107 21.4298 41.0278C21.2146 41.4071 20.584 41.794 19.8251 41.9684C19.7351 42.5945 19.8584 43.5159 20.7399 44.6628C21.2376 45.3103 21.7849 45.5996 22.3676 45.5214C23.0493 45.4306 23.6713 44.8684 24.1227 44.2612C24.0254 43.766 24.0616 43.3125 24.1559 42.9806C24.3113 42.4331 24.6327 42.1217 24.9552 42.2031C25.0266 42.2214 25.1941 42.2939 25.2088 42.5729C25.2288 42.9596 24.944 43.6728 24.4762 44.3359C24.7084 45.2539 25.4732 46.3054 27.3496 46.8934C29.2409 47.4867 30.2799 46.6679 30.7315 46.1268C30.7516 46.1024 30.7716 46.0781 30.791 46.0531C30.3281 45.4485 30.1413 44.8139 30.1604 44.3379C30.184 43.7429 30.5037 43.3459 30.9949 43.301C31.2649 43.277 31.4863 43.4043 31.6202 43.66C31.8868 44.1682 31.7671 45.191 31.2024 46.0439C31.7698 46.6828 32.7063 47.2639 34.1212 47.5067C36.2384 47.872 37.4445 46.461 37.8648 45.8385C37.9863 45.6579 38.091 45.4748 38.1791 45.2943C37.7295 44.6334 37.5191 43.9649 37.6645 43.5615C37.7423 43.3457 37.9163 43.2096 38.1546 43.1782C38.3998 43.1465 38.6012 43.2385 38.7243 43.4381C38.9582 43.8165 38.8793 44.5264 38.5573 45.261C38.6595 45.3981 38.774 45.5362 38.9013 45.6732C39.4304 46.2415 40.872 47.5056 42.8349 46.9542C44.5988 46.459 45.4557 44.9445 45.6882 43.6489C44.9807 43.1489 44.5171 42.5632 44.4318 42.109C44.3587 41.719 44.5559 41.4268 44.9591 41.3271C45.4396 41.2092 45.8249 41.5173 45.9924 42.1528C46.0874 42.5123 46.108 42.9796 46.0391 43.4879C46.9232 44.069 48.1863 44.521 49.5968 44.3375C50.8179 44.1793 51.332 43.0773 51.548 42.1809C51.6902 41.5904 51.7326 40.9582 51.7015 40.3695C50.8571 39.7762 50.2398 39.0042 50.1249 38.4832C50.041 38.1021 50.2163 37.9159 50.3282 37.8389C50.5982 37.6524 50.8866 37.6467 51.1405 37.8209C51.6185 38.149 51.9385 39.1054 52.019 40.1898C52.5079 40.5103 53.0659 40.7635 53.6266 40.8601C54.7184 41.0471 55.5895 40.6324 56.2166 39.626C57.2788 37.922 56.7768 36.6064 56.3281 35.9223C55.944 35.9335 55.5887 35.8818 55.2829 35.7803C54.7102 35.5901 54.3541 35.234 54.3302 34.8278C54.3191 34.641 54.4034 34.4984 54.5613 34.4359C54.9682 34.2759 55.7752 34.7137 56.3599 35.4148C56.4018 35.4648 56.4473 35.5223 56.4946 35.587C57.4088 35.5145 58.4695 35.059 59.3215 34.0474C60.4046 32.7614 59.793 30.9842 58.9032 29.8876C58.6263 30.0454 58.3782 30.0868 58.2216 30.0939C57.714 30.1143 57.229 29.8556 57.0682 29.4714C56.9618 29.2164 57.0199 28.9598 57.2281 28.7678C57.5512 28.4692 58.1407 28.6565 58.7666 29.2543C58.8312 29.3162 58.896 29.3823 58.9607 29.4524C59.3193 29.1526 59.621 28.6468 59.8316 27.9729C60.3852 26.2018 59.1885 24.7939 58.0421 24.2396C57.9312 24.6085 57.7135 24.8499 57.5676 24.9779C57.1018 25.3871 56.4206 25.502 56.0488 25.2335C55.9224 25.1421 55.6543 24.8685 55.8955 24.2984C56.1555 23.6839 56.889 23.4854 57.7798 23.7792C57.7859 23.4279 57.6756 23.0306 57.4476 22.6095C56.6934 21.2149 55.4377 20.7926 54.4848 20.8096C54.4704 20.9279 54.444 21.0467 54.4054 21.1649C54.2221 21.7262 53.8031 22.1403 53.4091 22.1493C53.1634 22.1484 52.9666 22.0021 52.8638 21.7301C52.7107 21.3251 52.936 20.927 53.4518 20.6914C53.6598 20.596 53.9021 20.53 54.1654 20.4979C54.1431 20.125 53.9746 19.6551 53.412 19.2237C51.6321 17.859 49.9265 19.4662 49.8548 19.5354C49.7896 19.5979 49.6857 19.5964 49.6226 19.5309C49.5598 19.4657 49.5615 19.3618 49.6266 19.299C49.6462 19.2798 51.606 17.4251 53.6118 18.9632C54.1513 19.3767 54.457 19.9132 54.4941 20.476C55.602 20.4581 56.9587 21.0148 57.7365 22.4529C58.0554 23.0428 58.1393 23.5245 58.1056 23.9068C59.3895 24.4906 60.7706 26.0692 60.1449 28.071C59.881 28.9159 59.5207 29.411 59.1734 29.6996C60.096 30.8459 60.8302 32.7654 59.5726 34.259C58.7134 35.2792 57.6485 35.7728 56.6973 35.8937C57.1615 36.6798 57.5806 38.0585 56.4952 39.7998C55.6173 41.2084 54.4204 41.3293 53.5709 41.1837C53.0337 41.0914 52.5093 40.8723 52.0374 40.5884C52.048 41.149 51.9948 41.7273 51.867 42.2578C51.5273 43.6667 50.7359 44.521 49.6384 44.6632C48.2415 44.8442 46.9343 44.4301 45.9776 43.8403C45.6887 45.2101 44.7623 46.7543 42.9234 47.2704C40.7868 47.8706 39.2305 46.5096 38.6605 45.8968C38.5673 45.7968 38.4791 45.6942 38.3968 45.5906C38.319 45.7362 38.2321 45.8809 38.1365 46.0223C37.7326 46.622 36.6546 47.8946 34.8027 47.895ZM31.0615 43.6262C31.0488 43.6262 31.0365 43.6271 31.0251 43.6281C30.7062 43.657 30.5057 43.9273 30.4888 44.351C30.4731 44.7465 30.6215 45.2654 30.986 45.7731C31.4323 45.0476 31.5384 44.2101 31.3296 43.8121C31.2474 43.6553 31.1434 43.6262 31.0615 43.6262ZM38.2491 43.5004C38.2327 43.5004 38.2157 43.5014 38.1974 43.504C38.0807 43.519 38.0096 43.5729 37.9735 43.6728C37.8852 43.9181 38.0066 44.397 38.3349 44.9332C38.5535 44.3504 38.587 43.8403 38.4451 43.6106C38.399 43.5354 38.3373 43.5004 38.2491 43.5004ZM24.8526 42.5139C24.7602 42.5139 24.5796 42.6924 24.4724 43.0703C24.412 43.2832 24.3791 43.5526 24.3995 43.8518C24.5362 43.6276 24.646 43.4106 24.7237 43.222C24.9223 42.7396 24.8862 42.5417 24.8656 42.5154C24.8615 42.5145 24.857 42.5139 24.8526 42.5139ZM45.1491 41.6315C45.1141 41.6315 45.0773 41.636 45.0384 41.6456C44.801 41.7043 44.7137 41.8284 44.7549 42.0481C44.8152 42.3689 45.1721 42.8396 45.7391 43.2742C45.7748 42.8806 45.7505 42.5214 45.6751 42.236C45.613 42.0001 45.4649 41.6315 45.1491 41.6315ZM20.9693 40.5023C20.9573 40.5023 20.9446 40.5029 20.9312 40.5042C20.6427 40.531 20.2254 40.8464 19.986 41.3957C19.9588 41.4582 19.932 41.5285 19.9074 41.6065C20.4968 41.4432 20.9838 41.1489 21.1445 40.8656C21.2251 40.7232 21.1888 40.6398 21.1546 40.5895C21.1391 40.5671 21.0949 40.5023 20.9693 40.5023ZM50.7534 38.0224C50.6773 38.0224 50.5987 38.0514 50.5149 38.109C50.4859 38.1289 50.3971 38.1901 50.446 38.4121C50.5382 38.831 51.0118 39.4307 51.6651 39.9368C51.5604 39.0478 51.2885 38.3204 50.9551 38.0914C50.8881 38.0456 50.8216 38.0224 50.7534 38.0224ZM17.8096 36.9368C17.8732 36.9606 17.9277 36.9773 17.9695 36.9885C18.4352 37.115 18.8324 37.0306 18.947 36.8776C18.9648 36.8539 19.0188 36.7817 18.924 36.6265C18.776 36.384 18.4565 36.5001 18.2791 36.5909C18.1293 36.6674 17.9685 36.7851 17.8096 36.9368ZM54.7549 34.7296C54.7257 34.7296 54.7013 34.7335 54.6827 34.7409C54.6698 34.746 54.6551 34.7518 54.6585 34.8082C54.674 35.0715 54.9531 35.3243 55.3868 35.4682C55.5951 35.5375 55.8298 35.5804 56.0815 35.5931C55.5637 34.9865 54.9948 34.7296 54.7549 34.7296ZM18.1532 31.7982C18.3277 31.871 18.4751 31.9045 18.5598 31.9189C18.9529 31.9865 19.3279 31.9092 19.4706 31.7306C19.5398 31.644 19.5477 31.5395 19.4946 31.4109C19.4343 31.2649 19.1316 31.331 19.0398 31.3548C18.7827 31.4217 18.4706 31.5746 18.1532 31.7982ZM57.6107 28.955C57.5449 28.955 57.4907 28.9723 57.4515 29.0085C57.3462 29.1057 57.3193 29.2185 57.3718 29.3443C57.4634 29.5634 57.7945 29.7904 58.207 29.7654C58.3724 29.7578 58.5323 29.7142 58.6845 29.6365C58.6368 29.5862 58.5885 29.5378 58.5402 29.4915C58.1863 29.1532 57.8329 28.955 57.6107 28.955ZM57.0126 23.976C56.657 23.976 56.3382 24.096 56.1985 24.426C56.1232 24.6043 56.0695 24.8426 56.2416 24.9671C56.4601 25.1249 56.9691 25.0665 57.3513 24.731C57.5452 24.5607 57.6737 24.351 57.7362 24.1107C57.507 24.0299 57.2513 23.976 57.0126 23.976ZM54.1487 20.8356C53.9323 20.8657 53.7413 20.9199 53.589 20.9895C53.4216 21.0662 53.0457 21.2801 53.1716 21.6135C53.251 21.8235 53.3663 21.8249 53.4021 21.8204C53.6173 21.8156 53.943 21.5243 54.0938 21.0626C54.1132 21.0029 54.134 20.926 54.1487 20.8356Z" fill="#241726"/>
<path d="M34.519 70.8094L40.0365 70.3816L39.854 71.9587L35.2147 72.314L34.519 70.8094Z" fill="white"/>
<path d="M40.1548 70.2679C40.1207 70.2326 40.072 70.2133 40.0237 70.2182L34.5063 70.646C34.4527 70.6499 34.4045 70.6801 34.3774 70.7265C34.3502 70.773 34.3474 70.8297 34.3699 70.8785L35.0656 72.383C35.0924 72.4415 35.1509 72.4783 35.2146 72.4783C35.2188 72.4783 35.2229 72.4783 35.2271 72.478L36.2598 72.3988C36.4862 74.1215 30.2396 74.4076 34.1993 75.2129C37.7982 75.9449 37.9057 73.2794 37.8707 72.5583L38.0326 74.615L39.3338 74.2282L38.9824 72.1901L39.8665 72.1222C39.9449 72.1165 40.0081 72.0555 40.0171 71.9776L40.1996 70.4005C40.2051 70.3519 40.1887 70.303 40.1548 70.2679ZM39.7063 71.8054L35.3157 72.1415L34.7671 70.9551L39.8504 70.5608L39.7063 71.8054Z" fill="#241726"/>
<path d="M42.0298 69.9235L47.5935 70.1485L47.1764 71.7768L42.0298 71.9586V69.9235Z" fill="white"/>
<path d="M45.9904 71.9832L47.1821 71.941C47.2549 71.9385 47.3173 71.888 47.3354 71.8175L47.7528 70.1893C47.7651 70.1411 47.7549 70.0902 47.7256 70.0504C47.6959 70.0105 47.6499 69.9865 47.6004 69.9843L42.0365 69.7591C41.9959 69.7604 41.9485 69.7738 41.9162 69.8049C41.884 69.8357 41.8657 69.8786 41.8657 69.9232V71.9585C41.8657 72.003 41.8838 72.0457 41.9159 72.0765C41.9465 72.1063 41.9874 72.1227 42.0299 72.1227C42.0318 72.1227 42.0338 72.1227 42.0357 72.1227L43.2332 72.0804L42.8971 74.2279L44.1984 74.6147L44.3603 72.558C44.3254 73.2791 44.4328 75.9446 48.0317 75.2125C52.0556 74.3944 45.6195 74.0043 45.9904 71.9832ZM42.1938 70.0943L47.3842 70.3044L47.0478 71.6171L42.1938 71.7886V70.0943Z" fill="#241726"/>
</svg>
